<?xml version="1.0" encoding="UTF-8"?>
<!-- Generator: visioncortex VTracer 0.6.4 -->
<svg version="1.1" xmlns="http://www.w3.org/2000/svg" width="512" height="512">
<path d="M0 0 C1.45 0.03 1.45 0.03 2.94 0.06 C4.32 2.83 5.71 5.6 7.09 8.37 C8.37 10.93 9.65 13.48 10.94 16.04 C25.35 44.64 25.35 44.64 22.32 57.71 C20.05 63.59 16.37 66.99 10.94 70.06 C7.44 71.44 7.44 71.44 4.94 72.06 C4.94 72.39 4.94 72.72 4.94 73.06 C6.35 73.17 6.35 73.17 7.79 73.27 C89.92 79.47 89.92 79.47 114.47 105.18 C118.32 110.13 120.01 116.18 121.94 122.06 C122.76 122.04 123.58 122.02 124.43 121.99 C138.35 121.77 149.88 124.04 160.86 133.02 C169.44 141.48 172.79 153.5 173.12 165.25 C172.95 175.76 170.22 184.54 165.94 194.06 C165.61 195.05 165.28 196.04 164.94 197.06 C165.86 197.75 166.77 198.44 167.72 199.15 C181.3 209.48 193.97 222.14 196.76 239.87 C198.17 257.48 193.3 271.29 182.38 285.19 C146.48 326.26 78.54 341.05 26.48 344.9 C18.83 345.25 11.18 345.25 3.53 345.25 C0.54 345.25 -2.46 345.27 -5.45 345.29 C-23.02 345.34 -40.33 344.08 -57.62 340.94 C-59.37 340.62 -59.37 340.62 -61.15 340.3 C-87.57 335.27 -113.37 326.82 -137.06 314.06 C-138.07 313.53 -138.07 313.53 -139.1 312.98 C-160.38 301.67 -180.41 286.84 -190.06 264.06 C-190.57 262.92 -190.57 262.92 -191.09 261.75 C-195.15 250.93 -194.62 236.41 -190.39 225.77 C-177.72 199.94 -150.67 187.6 -124.7 178.66 C-123.92 178.4 -123.15 178.13 -122.35 177.87 C-119.89 177 -117.48 176.05 -115.06 175.06 C-116.06 168.54 -117.06 162.03 -118.13 155.52 C-123.96 119.35 -123.96 119.35 -117 107.67 C-101.59 86.95 -70.16 80.28 -46.08 76.58 C-32.17 74.68 -18.07 73.96 -4.06 73.06 C-6.41 71.5 -8.4 70.44 -10.94 69.31 C-16.32 66.63 -19.48 62.8 -21.88 57.31 C-24.84 48.32 -22.93 40.44 -19.06 32.06 C-17.27 28.53 -15.39 25.05 -13.5 21.57 C-10.34 15.72 -7.67 9.77 -5.16 3.62 C-3.64 0.07 -3.64 0.07 0 0 Z M-1.06 4.06 C-3.27 7.56 -4.96 11.03 -6.5 14.88 C-9.13 21.28 -11.86 27.29 -15.69 33.06 C-19.38 38.87 -20.89 45.18 -20.06 52.06 C-17.98 57.49 -15.99 61.79 -11.06 65.06 C-10.34 65.6 -9.62 66.13 -8.88 66.69 C-4.37 68.89 0.17 69.66 5.12 68.59 C11.29 66.46 16.08 63.16 19.21 57.25 C21.67 49.85 20.24 42.87 16.94 36.06 C16.62 35.41 16.31 34.75 15.99 34.07 C14.99 32 13.97 29.94 12.94 27.88 C12.59 27.18 12.25 26.48 11.9 25.76 C10.5 22.96 9.19 20.39 7.28 17.89 C5.16 15 4.69 11.75 3.88 8.3 C3.12 5.9 3.12 5.9 0.84 4.76 C0.21 4.53 -0.42 4.3 -1.06 4.06 Z M-17.06 77.06 C-17.06 78.38 -17.06 79.7 -17.06 81.06 C-12.77 81.15 -8.48 81.2 -4.19 81.25 C-2.96 81.28 -1.74 81.3 -0.48 81.33 C0.69 81.34 1.85 81.35 3.05 81.36 C4.13 81.37 5.21 81.39 6.32 81.4 C7.19 81.29 8.05 81.18 8.94 81.06 C9.6 80.07 10.26 79.08 10.94 78.06 C9.87 76.77 9.87 76.77 7.35 76.95 C6.22 76.95 5.09 76.96 3.93 76.96 C2.11 76.97 2.11 76.97 0.25 76.97 C-1.03 76.98 -2.31 76.99 -3.62 77 C-5.55 77.01 -5.55 77.01 -7.51 77.01 C-10.7 77.03 -13.88 77.04 -17.06 77.06 Z M-35.06 79.06 C-36.56 79.19 -38.06 79.29 -39.56 79.38 C-45.27 79.85 -50.82 80.89 -56.44 82 C-57.31 82.17 -58.17 82.34 -59.07 82.51 C-63.25 83.37 -67.16 84.27 -71.06 86.06 C-70.73 86.72 -70.4 87.38 -70.06 88.06 C-66.62 88.2 -63.75 88.31 -60.48 87.15 C-55.88 85.69 -51.28 85.13 -46.5 84.5 C-44.64 84.25 -42.79 84 -40.93 83.75 C-40.12 83.64 -39.3 83.53 -38.46 83.42 C-35.98 83.05 -33.53 82.57 -31.06 82.06 C-28.4 81.69 -25.73 81.38 -23.06 81.06 C-23.06 80.07 -23.06 79.08 -23.06 78.06 C-24.92 78.03 -24.92 78.03 -26.81 78 C-27.51 77.99 -28.2 77.98 -28.92 77.96 C-31.11 78.06 -32.95 78.52 -35.06 79.06 Z M11.94 78.06 C11.94 79.05 11.94 80.04 11.94 81.06 C13.26 80.73 14.58 80.4 15.94 80.06 C15.61 79.4 15.28 78.74 14.94 78.06 C13.95 78.06 12.96 78.06 11.94 78.06 Z M18.94 78.06 C18.94 79.05 18.94 80.04 18.94 81.06 C19.93 80.73 20.92 80.4 21.94 80.06 C21.61 79.4 21.28 78.74 20.94 78.06 C20.28 78.06 19.62 78.06 18.94 78.06 Z M23.94 78.06 C23.94 79.05 23.94 80.04 23.94 81.06 C24.93 81.06 25.92 81.06 26.94 81.06 C26.61 80.07 26.28 79.08 25.94 78.06 C25.28 78.06 24.62 78.06 23.94 78.06 Z M31.94 79.06 C31.94 80.05 31.94 81.04 31.94 82.06 C38.29 84.37 44.23 84.26 50.94 84.06 C50.94 83.07 50.94 82.08 50.94 81.06 C48.71 80.72 46.48 80.39 44.25 80.06 C43.01 79.88 41.77 79.69 40.49 79.5 C37.58 79.14 34.86 78.97 31.94 79.06 Z M56.94 83.06 C56.94 84.38 56.94 85.7 56.94 87.06 C60.24 87.72 63.54 88.38 66.94 89.06 C67.6 88.07 68.26 87.08 68.94 86.06 C67.5 85.56 66.06 85.06 64.62 84.56 C63.82 84.28 63.02 84.01 62.2 83.72 C59.85 82.92 59.85 82.92 56.94 83.06 Z M73.94 87.06 C72.95 88.55 72.95 88.55 71.94 90.06 C73.26 90.39 74.58 90.72 75.94 91.06 C75.94 90.07 75.94 89.08 75.94 88.06 C75.28 87.73 74.62 87.4 73.94 87.06 Z M77.94 89.06 C77.94 90.05 77.94 91.04 77.94 92.06 C79 93.36 79 93.36 81.5 93.12 C82.3 93.1 83.11 93.08 83.94 93.06 C83.94 92.07 83.94 91.08 83.94 90.06 C80.97 89.57 80.97 89.57 77.94 89.06 Z M85.94 92.06 C85.94 93.05 85.94 94.04 85.94 95.06 C87.32 95.93 88.72 96.78 90.12 97.62 C90.9 98.1 91.68 98.58 92.48 99.07 C95.42 100.26 96.94 99.95 99.94 99.06 C97.8 96.73 95.77 95.28 92.94 93.88 C92.26 93.53 91.58 93.19 90.88 92.83 C88.82 91.88 88.82 91.88 85.94 92.06 Z M100.94 100.06 C100.94 101.38 100.94 102.7 100.94 104.06 C101.93 104.39 102.92 104.72 103.94 105.06 C103.94 103.74 103.94 102.42 103.94 101.06 C102.95 100.73 101.96 100.4 100.94 100.06 Z M-105.06 101.06 C-105.65 101.47 -106.24 101.88 -106.85 102.3 C-112.05 106.18 -116.99 112.53 -118.06 119.06 C-119.2 135.55 -115.95 152.01 -112.33 168.02 C-111.55 171.49 -111.06 174.49 -111.06 178.06 C-111.96 178.3 -112.85 178.55 -113.77 178.8 C-120.23 180.59 -126.54 182.47 -132.73 185.08 C-134.25 185.72 -135.78 186.32 -137.34 186.89 C-148.85 191.11 -159.43 197.47 -169.06 205 C-169.67 205.47 -170.27 205.95 -170.9 206.43 C-172.33 207.59 -173.7 208.82 -175.06 210.06 C-175.06 210.72 -175.06 211.38 -175.06 212.06 C-175.96 212.37 -175.96 212.37 -176.88 212.69 C-179.89 214.58 -180.53 216.88 -182.06 220.06 C-182.91 221.01 -183.75 221.96 -184.62 222.94 C-187.61 226.77 -188.13 229.34 -189.06 234.06 C-189.39 235.05 -189.72 236.04 -190.06 237.06 C-190.75 247.98 -190.21 257.71 -184.06 267.06 C-183.39 268.73 -182.72 270.39 -182.06 272.06 C-181.4 273.05 -180.74 274.04 -180.06 275.06 C-179.4 275.06 -178.74 275.06 -178.06 275.06 C-177.73 276.38 -177.4 277.7 -177.06 279.06 C-176.4 279.06 -175.74 279.06 -175.06 279.06 C-174.81 279.64 -174.57 280.22 -174.31 280.81 C-172.25 284.52 -169.56 286.73 -166.06 289.06 C-164.3 290.75 -162.65 292.51 -161 294.31 C-157.15 298.16 -152.56 301.05 -148.06 304.06 C-146.93 304.85 -146.93 304.85 -145.78 305.66 C-145.09 306.12 -144.4 306.58 -143.69 307.06 C-143.08 307.48 -142.48 307.89 -141.85 308.31 C-139.56 309.27 -138.36 308.87 -136.06 308.06 C-135.88 308.66 -135.69 309.26 -135.5 309.88 C-133.77 312.51 -132.06 313.12 -129.17 314.22 C-126.8 315.17 -124.58 316.32 -122.31 317.5 C-116.57 320.41 -110.48 323.07 -104.18 324.48 C-101.71 325.16 -99.46 326.2 -97.11 327.23 C-93.15 328.84 -89.04 330.02 -84.94 331.25 C-84.06 331.52 -83.18 331.8 -82.27 332.08 C-81.41 332.33 -80.56 332.59 -79.68 332.86 C-78.53 333.2 -78.53 333.2 -77.35 333.56 C-75.04 334.16 -75.04 334.16 -72.51 334.05 C-70 334.06 -68.56 334.47 -66.28 335.46 C-62.1 337.13 -58.06 337.97 -53.62 338.62 C-52.81 338.75 -51.99 338.87 -51.15 339 C-18.41 343.65 17.35 344.79 49.98 338.62 C52.34 338.17 54.71 337.78 57.09 337.41 C75.26 334.96 75.26 334.96 91.94 328.06 C93.94 328.02 95.94 328.02 97.94 328.06 C99.92 327.2 99.92 327.2 101.94 326.06 C104.27 325.38 106.6 324.72 108.94 324.06 C122.43 320.42 122.43 320.42 133.94 313.06 C134.68 312.93 135.41 312.79 136.18 312.65 C139.63 311.91 142.1 310.43 145.12 308.62 C146.17 308.01 147.22 307.39 148.29 306.75 C150.96 305.18 150.96 305.18 152.94 303.06 C153.7 302.76 154.47 302.46 155.26 302.16 C158.17 300.97 160.28 299.5 162.75 297.56 C163.54 296.95 164.33 296.35 165.14 295.72 C166.03 294.9 166.03 294.9 166.94 294.06 C166.94 293.4 166.94 292.74 166.94 292.06 C167.52 291.96 168.11 291.87 168.71 291.77 C173.61 290.22 177.05 285.35 179.88 281.25 C181.08 279.17 181.08 279.17 180.94 277.06 C181.51 276.88 182.09 276.69 182.69 276.5 C187.53 273.41 189.39 267.36 190.94 262.06 C191.29 260.99 191.64 259.92 192 258.81 C194.12 250.34 194.45 242.53 191.94 234.06 C191.28 233.4 190.62 232.74 189.94 232.06 C189.52 230.87 189.11 229.67 188.69 228.44 C185.89 220.74 179.61 212.8 172.94 208.06 C170.73 208.25 170.73 208.25 168.94 209.06 C169.27 210.05 169.6 211.04 169.94 212.06 C170.93 212.06 171.92 212.06 172.94 212.06 C173.27 213.38 173.6 214.7 173.94 216.06 C174.93 215.73 175.92 215.4 176.94 215.06 C176.61 216.05 176.28 217.04 175.94 218.06 C177.27 220.41 177.27 220.41 179.19 222.81 C184.92 230.67 187.76 238.16 186.94 248.06 C185.01 254.59 181.8 260.25 178.11 265.93 C176.7 268.1 176.7 268.1 176.94 271.06 C176.94 274.67 173.99 276.88 171.65 279.43 C136.54 313.44 80.59 323.1 33.94 328.06 C32.99 328.17 32.05 328.27 31.08 328.38 C-29.99 334.41 -107.59 325.54 -157.62 287.08 C-168.98 277.69 -168.98 277.69 -172.06 273.06 C-171.4 272.73 -170.74 272.4 -170.06 272.06 C-170.72 270.74 -171.38 269.42 -172.06 268.06 C-173.38 268.39 -174.7 268.72 -176.06 269.06 C-175.84 268.51 -175.61 267.95 -175.38 267.38 C-174.93 264.09 -176.27 262.81 -178.06 260.06 C-179.08 257.74 -180.08 255.4 -181.06 253.06 C-181.42 252.42 -181.77 251.77 -182.14 251.11 C-184.83 245.17 -183.35 236.28 -182.06 230.06 C-180.3 225.45 -177.28 221.76 -174.06 218.06 C-173.46 217.34 -172.86 216.63 -172.23 215.89 C-170.85 214.27 -169.46 212.66 -168.06 211.06 C-167.57 209.58 -167.57 209.58 -167.06 208.06 C-165.74 207.7 -164.4 207.37 -163.06 207.06 C-161.61 206.09 -160.2 205.06 -158.81 204 C-146.94 195.44 -132.94 189.9 -119.12 185.38 C-118.15 185.05 -117.18 184.73 -116.19 184.4 C-113.81 183.62 -111.44 182.84 -109.06 182.06 C-108.97 183.34 -108.88 184.62 -108.79 185.93 C-108.18 191.35 -106.48 196.08 -104.5 201.12 C-104.17 201.99 -103.84 202.86 -103.5 203.75 C-102.7 205.86 -101.88 207.96 -101.06 210.06 C-105.02 206.87 -108.66 203.66 -111.83 199.67 C-112.31 199.08 -112.78 198.48 -113.27 197.87 C-114.21 196.68 -115.13 195.47 -116.03 194.24 C-117.47 192.32 -117.47 192.32 -120.06 190.06 C-123.13 189.94 -123.13 189.94 -126.06 191.06 C-126.91 191.31 -127.75 191.56 -128.62 191.82 C-129.38 192.08 -130.15 192.35 -130.94 192.62 C-131.72 192.89 -132.5 193.16 -133.3 193.44 C-133.88 193.65 -134.46 193.85 -135.06 194.06 C-134.4 196.7 -133.74 199.34 -133.06 202.06 C-136.36 201.73 -139.66 201.4 -143.06 201.06 C-143.06 202.38 -143.06 203.7 -143.06 205.06 C-142.52 205.23 -141.98 205.4 -141.42 205.58 C-134.31 207.99 -134.31 207.99 -132.06 212.06 C-132.39 212.72 -132.72 213.38 -133.06 214.06 C-133.56 213.49 -134.05 212.91 -134.56 212.31 C-138.41 208.85 -142.8 206.06 -148.06 206.06 C-149.4 205.76 -150.74 205.43 -152.06 205.06 C-152.72 206.38 -153.38 207.7 -154.06 209.06 C-152.74 210.38 -151.42 211.7 -150.06 213.06 C-150.39 213.39 -150.72 213.72 -151.06 214.06 C-151.1 215.73 -151.11 217.4 -151.06 219.06 C-152.11 218.13 -152.11 218.13 -153.19 217.19 C-156.12 215.02 -158.57 214.04 -162.06 213.06 C-162.72 215.37 -163.38 217.68 -164.06 220.06 C-155.25 228.95 -155.25 228.95 -144.06 234.06 C-142.89 234.62 -141.71 235.18 -140.5 235.75 C-136.59 237.24 -134.21 237.66 -130.06 237.06 C-128.24 235.88 -128.24 235.88 -126.5 234.44 C-124.75 233.04 -124.75 233.04 -123.06 232.06 C-119.94 232.75 -119.94 232.75 -117.06 234.06 C-114.31 234.23 -114.31 234.23 -112.06 234.06 C-111.73 232.74 -111.4 231.42 -111.06 230.06 C-113.37 229.07 -115.68 228.08 -118.06 227.06 C-117.47 227.22 -116.88 227.37 -116.27 227.54 C-111.72 228.66 -108.67 229.09 -104.06 228.06 C-103.3 228.39 -102.54 228.72 -101.75 229.06 C-97.89 230.5 -95.1 229.75 -91.06 229.06 C-85.95 235.2 -85.95 235.2 -86.21 239.5 C-86.62 241.19 -87.04 242.88 -87.48 244.55 C-88.86 250.53 -87.77 255.42 -84.62 260.62 C-77.48 270.38 -64.26 280.24 -52.31 282.5 C-50.57 282.72 -48.82 282.91 -47.06 283.06 C-40.33 283.66 -33.99 284.94 -27.44 286.6 C-16.75 289.26 -6.01 289.33 4.96 289.58 C6.08 289.61 7.21 289.65 8.37 289.68 C9.39 289.71 10.41 289.73 11.47 289.76 C13.94 290.06 13.94 290.06 15.94 292.06 C14.94 293.06 14.94 293.06 11.5 293.44 C10.32 293.64 9.15 293.85 7.94 294.06 C7.28 295.05 6.62 296.04 5.94 297.06 C7.95 299.07 11.91 298.43 14.69 298.56 C19.19 298.78 23.52 299.14 27.94 300.06 C29.48 300.13 31.02 300.15 32.56 300.12 C33.32 300.12 34.07 300.11 34.85 300.1 C35.54 300.09 36.23 300.07 36.94 300.06 C39.94 300.06 39.94 300.06 43.88 300.62 C46.9 301.04 48.98 300.86 51.94 300.06 C52.6 300.72 53.26 301.38 53.94 302.06 C50.64 303.38 47.34 304.7 43.94 306.06 C43.28 305.4 42.62 304.74 41.94 304.06 C36.53 303.62 33.42 303.7 28.94 307.06 C29.27 308.05 29.6 309.04 29.94 310.06 C43.81 310.58 56.45 309.62 70 306.67 C74.42 305.76 78.87 305.01 83.32 304.25 C93.23 302.55 103.08 300.72 112.88 298.44 C113.73 298.24 114.58 298.05 115.46 297.85 C119.81 296.8 123.14 295.53 126.94 293.06 C128.86 292.61 130.78 292.15 132.71 291.71 C136.14 290.71 139.19 289.08 142.35 287.41 C144.08 286.51 145.82 285.65 147.59 284.84 C153.1 282.27 156.99 279.73 160.94 275.06 C160.94 274.4 160.94 273.74 160.94 273.06 C161.51 272.82 162.09 272.58 162.68 272.32 C169.17 268.69 173.59 261.96 175.94 255.06 C174.95 254.73 173.96 254.4 172.94 254.06 C172.98 253.49 173.03 252.93 173.08 252.34 C173.28 248.07 173.27 245.05 170.94 241.38 C168.8 237.83 168.28 236.12 168.94 232.06 C170.42 231.07 170.42 231.07 171.94 230.06 C173.12 226.77 173.12 226.77 172.94 223.06 C171.3 220.72 170.02 219.23 167.94 217.38 C167.43 216.9 166.93 216.42 166.41 215.93 C163.72 213.44 161.05 211.33 157.81 209.62 C154.94 208.06 154.94 208.06 154 205.81 C153.97 204.95 153.97 204.95 153.94 204.06 C157.05 203.1 158.42 202.81 161.39 204.28 C162.17 204.85 162.95 205.41 163.75 206 C164.54 206.57 165.33 207.13 166.14 207.71 C166.74 208.16 167.33 208.6 167.94 209.06 C168.6 208.07 169.26 207.08 169.94 206.06 C166.97 203.75 164 201.44 160.94 199.06 C161.96 195.05 163.17 191.43 164.94 187.69 C170.22 175.89 171.09 160.92 167.03 148.55 C162.81 138.95 156.13 132.14 146.46 128 C136.82 124.8 127.74 124.49 117.94 127.06 C117.81 125.87 117.69 124.67 117.56 123.44 C116.57 115.73 113.82 109.36 107.94 104.06 C106.95 104.39 105.96 104.72 104.94 105.06 C105.72 107.56 105.72 107.56 106.94 110.06 C107.93 110.39 108.92 110.72 109.94 111.06 C110.5 112.69 110.5 112.69 110.94 115.06 C111.37 116.09 111.8 117.12 112.25 118.19 C113.41 124.74 110.23 129.52 107.31 135.25 C103.8 139.41 99.48 142.1 94.94 145.06 C93.93 145.78 92.92 146.51 91.88 147.25 C88.71 149.2 85.5 150.68 82.09 152.13 C79.99 153.04 77.97 154.04 75.94 155.06 C74.28 155.74 72.61 156.41 70.94 157.06 C70.94 158.05 70.94 159.04 70.94 160.06 C77.37 159.55 82.9 158.33 88.94 156.06 C87.54 158.85 85.78 159 82.94 160.06 C81.58 161.21 81.58 161.21 81.56 164.31 C80.95 167.99 80.04 170.04 77.94 173.06 C76.87 169.87 76.86 167.41 76.94 164.06 C73.8 162.64 73.8 162.64 70.38 164.69 C67.05 166.72 66.1 168.3 64.94 172.06 C64.28 172.99 63.62 173.92 62.94 174.88 C61.02 177.94 60.38 180.36 59.57 183.83 C58.46 187.76 56.66 191.34 54.88 195 C54.51 195.77 54.15 196.53 53.77 197.32 C51.1 202.9 51.1 202.9 49.94 204.06 C50.27 199.44 50.6 194.82 50.94 190.06 C49.95 190.06 48.96 190.06 47.94 190.06 C47.7 190.7 47.47 191.34 47.22 192 C38.83 214.54 30.7 230.07 7.94 241.06 C-1.44 245.08 -11.36 247.1 -21.17 243.23 C-24.76 241.6 -28.22 239.79 -31.66 237.88 C-34.35 236.45 -36.18 235.69 -39.06 235.06 C-39.06 238.83 -38.83 239.97 -37.06 243.06 C-51.84 233.88 -65.92 223.54 -77.06 210.06 C-80.3 206.29 -80.3 206.29 -84.06 203.06 C-86.93 202.93 -86.93 202.93 -89.06 204.06 C-84.49 220.47 -71.32 237.3 -58.06 248.06 C-54.88 249.38 -54.88 249.38 -52.06 250.06 C-52.06 251.05 -52.06 252.04 -52.06 253.06 C-83.48 232.96 -98.55 193.94 -106.46 158.8 C-106.66 157.89 -106.86 156.99 -107.06 156.06 C-107.26 155.15 -107.46 154.24 -107.67 153.31 C-108.55 149.13 -109.16 145.35 -109.06 141.06 C-105.62 145.36 -104.8 147.66 -105.12 153.11 C-105.03 156.2 -103.59 158.43 -102.06 161.06 C-101.06 164.06 -101.06 164.06 -100.75 167 C-100 172.49 -98.45 178.07 -96.06 183.06 C-94.05 184.46 -94.05 184.46 -92.06 185.06 C-91.79 184.28 -91.53 183.5 -91.25 182.69 C-90.06 180.06 -90.06 180.06 -87.06 178.06 C-87.06 177.4 -87.06 176.74 -87.06 176.06 C-86.26 176.25 -85.45 176.43 -84.62 176.62 C-83.78 176.77 -82.93 176.91 -82.06 177.06 C-80.29 175.29 -80.89 172.77 -80.88 170.38 C-80.83 163.94 -80.83 163.94 -83.06 158.06 C-85.91 155.79 -88.93 153.92 -92.06 152.06 C-93.55 151.07 -93.55 151.07 -95.06 150.06 C-93.74 149.73 -92.42 149.4 -91.06 149.06 C-92.1 146.98 -92.1 146.98 -94.06 145.06 C-97.67 144.25 -97.67 144.25 -101.06 144.06 C-101.37 143.04 -101.37 143.04 -101.69 142 C-102.94 139.33 -104 137.89 -105.94 135.75 C-110.93 130.12 -113.44 124.54 -114.06 117.06 C-113.07 116.73 -112.08 116.4 -111.06 116.06 C-110.75 114.93 -110.44 113.79 -110.12 112.62 C-109.06 109.06 -109.06 109.06 -106.94 107.62 C-106.01 107.35 -106.01 107.35 -105.06 107.06 C-105.06 106.07 -105.06 105.08 -105.06 104.06 C-103.41 103.73 -101.76 103.4 -100.06 103.06 C-99.73 102.07 -99.4 101.08 -99.06 100.06 C-98.33 99.94 -97.6 99.81 -96.85 99.68 C-94.19 99.09 -91.92 98.29 -89.42 97.21 C-88.58 96.86 -87.74 96.5 -86.87 96.13 C-85.57 95.57 -85.57 95.57 -84.25 95 C-83.37 94.62 -82.48 94.25 -81.57 93.86 C-79.4 92.93 -77.23 92 -75.06 91.06 C-75.06 89.74 -75.06 88.42 -75.06 87.06 C-84.56 87.06 -97.79 95.72 -105.06 101.06 Z M-61.32 132.58 C-63.03 135.01 -64.57 137.5 -66.06 140.06 C-66.39 140.39 -66.72 140.72 -67.06 141.06 C-73.71 139.59 -73.71 139.59 -75.5 136.94 C-75.69 136.32 -75.87 135.7 -76.06 135.06 C-77.22 135.19 -78.37 135.31 -79.56 135.44 C-84.28 135.47 -86.71 133.56 -90.2 130.57 C-92.07 129.06 -93.88 128.06 -96.06 127.06 C-96.46 130.91 -96.46 130.91 -94.71 132.88 C-89.81 137.55 -85.37 140.57 -79.06 143.06 C-78.07 143.72 -77.08 144.38 -76.06 145.06 C-74.73 145.42 -73.4 145.75 -72.06 146.06 C-70.39 146.71 -68.72 147.38 -67.06 148.06 C-59.84 150.89 -52.96 153.17 -45.18 153.72 C-42.82 154.1 -41.16 154.94 -39.06 156.06 C-34.26 157.23 -29.58 157.08 -24.67 157.03 C-21.72 157.07 -18.96 157.54 -16.06 158.06 C-14.87 158.06 -13.67 158.06 -12.44 158.06 C-9.06 158.06 -9.06 158.06 -6.88 158.62 C-4.65 159.16 -3.25 158.65 -1.06 158.06 C-0.4 158.39 0.26 158.72 0.94 159.06 C5.4 159.36 9.46 158.86 13.88 158.12 C20.4 157.04 26.81 156.67 33.41 156.41 C36.74 156.08 38.88 155.33 41.94 154.06 C44.2 153.74 46.47 153.47 48.75 153.25 C65.33 151.27 83.93 145.07 95.94 133.06 C95.61 131.74 95.28 130.42 94.94 129.06 C94.33 129.49 93.72 129.91 93.09 130.35 C87.42 134.15 81.76 137.22 75.5 139.94 C74.81 140.24 74.13 140.53 73.42 140.84 C70.3 142.16 67.27 143.4 63.94 144.06 C62.95 142.58 62.95 142.58 61.94 141.06 C59.83 140.19 59.83 140.19 57.38 139.62 C53.71 138.67 50.87 137.48 47.62 135.56 C44.37 134 43.16 134.01 39.59 134.92 C37.29 135.83 35.01 136.8 32.76 137.83 C29.94 139.06 29.94 139.06 26.94 139.06 C29.91 137.74 32.88 136.42 35.94 135.06 C35.94 133.74 35.94 132.42 35.94 131.06 C34.72 131.33 33.5 131.6 32.25 131.88 C31.43 132.05 30.61 132.23 29.77 132.42 C27.77 132.87 25.78 133.36 23.8 133.86 C12.78 136.62 4 136.42 -7.06 134.06 C-6.73 133.07 -6.4 132.08 -6.06 131.06 C-3.41 130.08 -0.77 129.9 2.05 129.75 C2.8 129.7 3.56 129.66 4.33 129.62 C5.11 129.58 5.89 129.54 6.69 129.5 C7.88 129.44 7.88 129.44 9.09 129.37 C11.04 129.26 12.99 129.16 14.94 129.06 C14.94 127.74 14.94 126.42 14.94 125.06 C12.3 124.4 9.66 123.74 6.94 123.06 C10.4 122.57 10.4 122.57 13.94 122.06 C13.94 121.07 13.94 120.08 13.94 119.06 C-26.49 116.97 -26.49 116.97 -61.32 132.58 Z M-81.06 129.06 C-81.06 130.38 -81.06 131.7 -81.06 133.06 C-80.07 132.07 -79.08 131.08 -78.06 130.06 C-79.05 129.73 -80.04 129.4 -81.06 129.06 Z M-169.06 221.06 C-170.05 222.55 -170.05 222.55 -171.06 224.06 C-168.59 225.55 -168.59 225.55 -166.06 227.06 C-165.9 224.01 -165.9 224.01 -167.06 221.06 C-167.72 221.06 -168.38 221.06 -169.06 221.06 Z M-171.06 228.06 C-171.06 229.05 -171.06 230.04 -171.06 231.06 C-170.4 230.4 -169.74 229.74 -169.06 229.06 C-169.72 228.73 -170.38 228.4 -171.06 228.06 Z M-154.06 232.06 C-154.56 234.04 -154.56 234.04 -155.06 236.06 C-151.72 238.53 -151.72 238.53 -147.75 238.75 C-146.91 238.41 -146.91 238.41 -146.06 238.06 C-146.06 237.07 -146.06 236.08 -146.06 235.06 C-148.97 232.26 -149.85 232.06 -154.06 232.06 Z M-122.06 234.06 C-122.06 235.05 -122.06 236.04 -122.06 237.06 C-120.74 237.72 -119.42 238.38 -118.06 239.06 C-118.06 237.74 -118.06 236.42 -118.06 235.06 C-119.38 234.73 -120.7 234.4 -122.06 234.06 Z M-166.06 275.06 C-166.06 276.05 -166.06 277.04 -166.06 278.06 C-165.4 277.4 -164.74 276.74 -164.06 276.06 C-164.72 275.73 -165.38 275.4 -166.06 275.06 Z M-154.06 284.06 C-154.06 285.05 -154.06 286.04 -154.06 287.06 C-153.4 286.4 -152.74 285.74 -152.06 285.06 C-152.72 284.73 -153.38 284.4 -154.06 284.06 Z M156.15 285.14 C155.24 285.94 155.24 285.94 154.31 286.75 C149.84 290.33 145.3 292.16 139.94 294.06 C139.02 294.41 138.11 294.76 137.17 295.12 C132.8 296.79 128.6 298.2 124 299.06 C120.26 299.8 118.32 300.96 115.94 304.06 C119.23 306.51 119.23 306.51 123.16 306.84 C132.95 304.11 142.11 299.23 150.69 293.88 C151.35 293.46 152.02 293.04 152.71 292.62 C156.18 290.39 159.14 288.13 161.94 285.06 C158.97 283.94 158.97 283.94 156.15 285.14 Z M-86.06 292.06 C-86.39 293.38 -86.72 294.7 -87.06 296.06 C-88.38 296.39 -89.7 296.72 -91.06 297.06 C-90.73 297.72 -90.4 298.38 -90.06 299.06 C-87.82 299.67 -85.58 300.02 -83.29 300.4 C-81.06 301.06 -81.06 301.06 -79.63 302.62 C-77.31 304.76 -75.46 304.36 -72.38 304.25 C-70.88 304.21 -70.88 304.21 -69.36 304.17 C-68.6 304.13 -67.84 304.1 -67.06 304.06 C-66.73 305.05 -66.4 306.04 -66.06 307.06 C-62.9 308.33 -59.69 308.17 -56.31 308.12 C-55.33 308.12 -54.34 308.11 -53.33 308.1 C-52.58 308.09 -51.83 308.07 -51.06 308.06 C-51.06 307.07 -51.06 306.08 -51.06 305.06 C-54.32 303.13 -56.81 302.85 -60.56 302.75 C-65.74 302.36 -65.74 302.36 -68.5 299.81 C-69.55 297.97 -70.57 296.12 -71.56 294.25 C-75.29 290.99 -78.78 291.69 -83.58 291.89 C-84.81 291.97 -84.81 291.97 -86.06 292.06 Z M-118.06 303.06 C-119.05 304.55 -119.05 304.55 -120.06 306.06 C-113.9 309.44 -107.88 311.41 -101.06 313.06 C-100.73 311.74 -100.4 310.42 -100.06 309.06 C-100.65 308.88 -101.25 308.7 -101.86 308.51 C-106.33 307.09 -110.03 305.48 -114.06 303.06 C-115.38 303.06 -116.7 303.06 -118.06 303.06 Z M-28.06 305.06 C-28.06 306.05 -28.06 307.04 -28.06 308.06 C-27.07 307.73 -26.08 307.4 -25.06 307.06 C-25.39 306.4 -25.72 305.74 -26.06 305.06 C-26.72 305.06 -27.38 305.06 -28.06 305.06 Z M93.94 309.06 C94.93 310.55 94.93 310.55 95.94 312.06 C94.95 313.05 93.96 314.04 92.94 315.06 C97.56 316.52 100.98 315.4 105.38 313.81 C106.34 313.49 106.34 313.49 107.32 313.15 C111.37 311.75 115.15 310.05 118.94 308.06 C118.61 307.4 118.28 306.74 117.94 306.06 C109.32 305.76 102 305.67 93.94 309.06 Z M-18.06 307.06 C-18.06 308.05 -18.06 309.04 -18.06 310.06 C-16.74 309.73 -15.42 309.4 -14.06 309.06 C-14.39 308.4 -14.72 307.74 -15.06 307.06 C-16.05 307.06 -17.04 307.06 -18.06 307.06 Z M-98.06 308.06 C-98.72 309.71 -99.38 311.36 -100.06 313.06 C-94.88 315.47 -89.9 316.96 -84.31 318.12 C-83.52 318.29 -82.73 318.46 -81.92 318.64 C-79.64 319.12 -77.35 319.6 -75.06 320.06 C-73.94 320.29 -72.81 320.52 -71.66 320.76 C-67.06 321.65 -62.76 322.32 -58.06 322.06 C-58.06 321.07 -58.06 320.08 -58.06 319.06 C-59.21 317.72 -59.21 317.72 -62.25 317.62 C-66.06 317.06 -66.06 317.06 -68.81 316.06 C-73.49 314.62 -78.2 314.39 -83.06 314.06 C-83.39 313.07 -83.72 312.08 -84.06 311.06 C-88.4 308.89 -93.21 307.59 -98.06 308.06 Z M-5.06 309.06 C-5.06 310.05 -5.06 311.04 -5.06 312.06 C-3.41 311.73 -1.76 311.4 -0.06 311.06 C-0.39 310.4 -0.72 309.74 -1.06 309.06 C-2.38 309.06 -3.7 309.06 -5.06 309.06 Z M69.94 312.06 C69.61 313.38 69.28 314.7 68.94 316.06 C67.89 315.84 66.83 315.61 65.75 315.38 C62.02 314.69 62.02 314.69 59.56 316.5 C56.73 318.18 56.03 318.19 52.89 318.04 C48.64 317.96 44.88 318.58 40.74 319.49 C29.19 321.97 17.95 322.43 6.19 322.38 C5.4 322.37 4.62 322.37 3.81 322.37 C-9.37 322.29 -9.37 322.29 -13.06 321.06 C-16.81 322.16 -17.84 322.72 -20.06 326.06 C-16.15 329.97 -3.4 328.21 2 328.25 C31.16 329.05 31.16 329.05 58.94 322.06 C60.09 322.08 61.25 322.1 62.44 322.12 C67.4 322.2 72.15 321.34 76.94 320.06 C78.23 319 78.23 319 78 316.5 C77.98 315.7 77.96 314.89 77.94 314.06 C75.03 312.81 73.14 312.06 69.94 312.06 Z M79.94 316.06 C79.94 317.05 79.94 318.04 79.94 319.06 C81.36 318.95 82.77 318.82 84.19 318.69 C84.98 318.62 85.77 318.55 86.58 318.48 C89.02 318.05 90.79 317.28 92.94 316.06 C92.61 315.4 92.28 314.74 91.94 314.06 C87.61 313.8 84.06 314.77 79.94 316.06 Z M-50.06 321.06 C-50.06 322.05 -50.06 323.04 -50.06 324.06 C-48.41 323.73 -46.76 323.4 -45.06 323.06 C-45.39 322.4 -45.72 321.74 -46.06 321.06 C-47.38 321.06 -48.7 321.06 -50.06 321.06 Z M-30.88 323.06 C-31.27 323.72 -31.66 324.38 -32.06 325.06 C-30.96 326.38 -30.96 326.38 -28.19 326.31 C-25.07 326.36 -25.07 326.36 -23.19 324.56 C-22.82 324.07 -22.44 323.57 -22.06 323.06 C-23.89 320.84 -23.89 320.84 -26.5 320.69 C-29.22 320.81 -29.22 320.81 -30.88 323.06 Z " fill="#C49D70" transform="translate(255.0625,59.9375)"/>
<path d="M0 0 C1.45 0.03 1.45 0.03 2.94 0.06 C4.32 2.83 5.71 5.6 7.09 8.37 C8.37 10.93 9.65 13.48 10.94 16.04 C25.35 44.64 25.35 44.64 22.32 57.71 C20.05 63.59 16.37 66.99 10.94 70.06 C7.44 71.44 7.44 71.44 4.94 72.06 C4.94 72.39 4.94 72.72 4.94 73.06 C6.35 73.17 6.35 73.17 7.79 73.27 C89.92 79.47 89.92 79.47 114.47 105.18 C118.32 110.13 120.01 116.18 121.94 122.06 C122.76 122.04 123.58 122.02 124.43 121.99 C138.35 121.77 149.88 124.04 160.86 133.02 C169.44 141.48 172.79 153.5 173.12 165.25 C172.95 175.76 170.22 184.54 165.94 194.06 C165.61 195.05 165.28 196.04 164.94 197.06 C165.86 197.75 166.77 198.44 167.72 199.15 C181.3 209.48 193.97 222.14 196.76 239.87 C198.17 257.48 193.3 271.29 182.38 285.19 C146.48 326.26 78.54 341.05 26.48 344.9 C18.83 345.25 11.18 345.25 3.53 345.25 C0.54 345.25 -2.46 345.27 -5.45 345.29 C-23.02 345.34 -40.33 344.08 -57.62 340.94 C-59.37 340.62 -59.37 340.62 -61.15 340.3 C-87.57 335.27 -113.37 326.82 -137.06 314.06 C-138.07 313.53 -138.07 313.53 -139.1 312.98 C-160.38 301.67 -180.41 286.84 -190.06 264.06 C-190.57 262.92 -190.57 262.92 -191.09 261.75 C-195.15 250.93 -194.62 236.41 -190.39 225.77 C-177.72 199.94 -150.67 187.6 -124.7 178.66 C-123.92 178.4 -123.15 178.13 -122.35 177.87 C-119.89 177 -117.48 176.05 -115.06 175.06 C-116.06 168.54 -117.06 162.03 -118.13 155.52 C-123.96 119.35 -123.96 119.35 -117 107.67 C-101.59 86.95 -70.16 80.28 -46.08 76.58 C-32.17 74.68 -18.07 73.96 -4.06 73.06 C-6.41 71.5 -8.4 70.44 -10.94 69.31 C-16.32 66.63 -19.48 62.8 -21.88 57.31 C-24.84 48.32 -22.93 40.44 -19.06 32.06 C-17.27 28.53 -15.39 25.05 -13.5 21.57 C-10.34 15.72 -7.67 9.77 -5.16 3.62 C-3.64 0.07 -3.64 0.07 0 0 Z M-1.06 4.06 C-3.27 7.56 -4.96 11.03 -6.5 14.88 C-9.13 21.28 -11.86 27.29 -15.69 33.06 C-19.38 38.87 -20.89 45.18 -20.06 52.06 C-17.98 57.49 -15.99 61.79 -11.06 65.06 C-10.34 65.6 -9.62 66.13 -8.88 66.69 C-4.37 68.89 0.17 69.66 5.12 68.59 C11.29 66.46 16.08 63.16 19.21 57.25 C21.67 49.85 20.24 42.87 16.94 36.06 C16.62 35.41 16.31 34.75 15.99 34.07 C14.99 32 13.97 29.94 12.94 27.88 C12.59 27.18 12.25 26.48 11.9 25.76 C10.5 22.96 9.19 20.39 7.28 17.89 C5.16 15 4.69 11.75 3.88 8.3 C3.12 5.9 3.12 5.9 0.84 4.76 C0.21 4.53 -0.42 4.3 -1.06 4.06 Z M-17.06 77.06 C-17.39 78.05 -17.72 79.04 -18.06 80.06 C-21.94 79.19 -21.94 79.19 -23.06 78.06 C-27.38 77.92 -30.89 78.01 -35.06 79.06 C-36.56 79.19 -38.06 79.29 -39.56 79.38 C-45.27 79.85 -50.82 80.89 -56.44 82 C-57.31 82.17 -58.17 82.34 -59.07 82.51 C-63.25 83.37 -67.16 84.27 -71.06 86.06 C-70.57 87.55 -70.57 87.55 -70.06 89.06 C-71.38 89.39 -72.7 89.72 -74.06 90.06 C-74.56 88.58 -74.56 88.58 -75.06 87.06 C-84.64 90.2 -93.75 93.2 -102.06 99.06 C-102.85 99.6 -103.64 100.13 -104.45 100.68 C-110.74 105.19 -116.72 111.12 -118.06 119.06 C-119.2 135.55 -115.95 152.01 -112.33 168.02 C-111.55 171.49 -111.06 174.49 -111.06 178.06 C-111.96 178.3 -112.85 178.55 -113.77 178.8 C-120.23 180.59 -126.54 182.47 -132.73 185.08 C-134.25 185.72 -135.78 186.32 -137.34 186.89 C-148.85 191.11 -159.43 197.47 -169.06 205 C-169.67 205.47 -170.27 205.95 -170.9 206.43 C-172.33 207.59 -173.7 208.82 -175.06 210.06 C-175.06 210.72 -175.06 211.38 -175.06 212.06 C-175.66 212.27 -176.26 212.48 -176.88 212.69 C-179.89 214.58 -180.53 216.88 -182.06 220.06 C-182.91 221.01 -183.75 221.96 -184.62 222.94 C-187.61 226.77 -188.13 229.34 -189.06 234.06 C-189.39 235.05 -189.72 236.04 -190.06 237.06 C-190.75 247.98 -190.21 257.71 -184.06 267.06 C-183.39 268.73 -182.72 270.39 -182.06 272.06 C-181.4 273.05 -180.74 274.04 -180.06 275.06 C-179.4 275.06 -178.74 275.06 -178.06 275.06 C-177.73 276.38 -177.4 277.7 -177.06 279.06 C-176.4 279.06 -175.74 279.06 -175.06 279.06 C-174.81 279.64 -174.57 280.22 -174.31 280.81 C-172.25 284.52 -169.56 286.73 -166.06 289.06 C-164.3 290.75 -162.65 292.51 -161 294.31 C-157.15 298.16 -152.56 301.05 -148.06 304.06 C-146.93 304.85 -146.93 304.85 -145.78 305.66 C-145.09 306.12 -144.4 306.58 -143.69 307.06 C-143.08 307.48 -142.48 307.89 -141.85 308.31 C-139.56 309.27 -138.36 308.87 -136.06 308.06 C-135.88 308.66 -135.69 309.26 -135.5 309.88 C-133.77 312.51 -132.06 313.12 -129.17 314.22 C-126.8 315.17 -124.58 316.32 -122.31 317.5 C-116.57 320.41 -110.48 323.07 -104.18 324.48 C-101.71 325.16 -99.46 326.2 -97.11 327.23 C-93.15 328.84 -89.04 330.02 -84.94 331.25 C-84.06 331.52 -83.18 331.8 -82.27 332.08 C-81.41 332.33 -80.56 332.59 -79.68 332.86 C-78.91 333.09 -78.15 333.32 -77.35 333.56 C-75.04 334.16 -75.04 334.16 -72.51 334.05 C-70 334.06 -68.56 334.47 -66.28 335.46 C-62.1 337.13 -58.06 337.97 -53.62 338.62 C-52.81 338.75 -51.99 338.87 -51.15 339 C-18.41 343.65 17.35 344.79 49.98 338.62 C52.34 338.17 54.71 337.78 57.09 337.41 C75.26 334.96 75.26 334.96 91.94 328.06 C93.94 328.02 95.94 328.02 97.94 328.06 C99.92 327.2 99.92 327.2 101.94 326.06 C104.27 325.38 106.6 324.72 108.94 324.06 C122.43 320.42 122.43 320.42 133.94 313.06 C134.68 312.93 135.41 312.79 136.18 312.65 C139.63 311.91 142.1 310.43 145.12 308.62 C146.17 308.01 147.22 307.39 148.29 306.75 C150.96 305.18 150.96 305.18 152.94 303.06 C153.7 302.76 154.47 302.46 155.26 302.16 C158.17 300.97 160.28 299.5 162.75 297.56 C163.54 296.95 164.33 296.35 165.14 295.72 C166.03 294.9 166.03 294.9 166.94 294.06 C166.94 293.4 166.94 292.74 166.94 292.06 C167.52 291.96 168.11 291.87 168.71 291.77 C173.61 290.22 177.05 285.35 179.88 281.25 C181.08 279.17 181.08 279.17 180.94 277.06 C181.51 276.88 182.09 276.69 182.69 276.5 C187.53 273.41 189.39 267.36 190.94 262.06 C191.29 260.99 191.64 259.92 192 258.81 C194.12 250.34 194.45 242.53 191.94 234.06 C191.28 233.4 190.62 232.74 189.94 232.06 C189.52 230.87 189.11 229.67 188.69 228.44 C185.89 220.74 179.61 212.8 172.94 208.06 C170.73 208.25 170.73 208.25 168.94 209.06 C169.27 210.05 169.6 211.04 169.94 212.06 C170.93 212.06 171.92 212.06 172.94 212.06 C173.27 213.38 173.6 214.7 173.94 216.06 C174.93 215.73 175.92 215.4 176.94 215.06 C176.61 216.05 176.28 217.04 175.94 218.06 C177.27 220.41 177.27 220.41 179.19 222.81 C184.92 230.67 187.76 238.16 186.94 248.06 C185.01 254.59 181.8 260.25 178.11 265.93 C176.7 268.1 176.7 268.1 176.94 271.06 C176.94 274.67 173.99 276.88 171.65 279.43 C136.54 313.44 80.59 323.1 33.94 328.06 C32.99 328.17 32.05 328.27 31.08 328.38 C-29.99 334.41 -107.59 325.54 -157.62 287.08 C-168.98 277.69 -168.98 277.69 -172.06 273.06 C-171.4 272.73 -170.74 272.4 -170.06 272.06 C-170.72 270.74 -171.38 269.42 -172.06 268.06 C-173.38 268.39 -174.7 268.72 -176.06 269.06 C-175.84 268.51 -175.61 267.95 -175.38 267.38 C-174.93 264.09 -176.27 262.81 -178.06 260.06 C-179.08 257.74 -180.08 255.4 -181.06 253.06 C-181.42 252.42 -181.77 251.77 -182.14 251.11 C-184.83 245.17 -183.35 236.28 -182.06 230.06 C-180.3 225.45 -177.28 221.76 -174.06 218.06 C-173.46 217.34 -172.86 216.63 -172.23 215.89 C-170.85 214.27 -169.46 212.66 -168.06 211.06 C-167.73 210.07 -167.4 209.08 -167.06 208.06 C-165.74 207.7 -164.4 207.37 -163.06 207.06 C-161.61 206.09 -160.2 205.06 -158.81 204 C-146.94 195.44 -132.94 189.9 -119.12 185.38 C-118.15 185.05 -117.18 184.73 -116.19 184.4 C-113.81 183.62 -111.44 182.84 -109.06 182.06 C-108.97 183.34 -108.88 184.62 -108.79 185.93 C-108.18 191.35 -106.48 196.08 -104.5 201.12 C-104.17 201.99 -103.84 202.86 -103.5 203.75 C-102.7 205.86 -101.88 207.96 -101.06 210.06 C-105.02 206.87 -108.66 203.66 -111.83 199.67 C-112.31 199.08 -112.78 198.48 -113.27 197.87 C-114.21 196.68 -115.13 195.47 -116.03 194.24 C-117.47 192.32 -117.47 192.32 -120.06 190.06 C-123.13 189.94 -123.13 189.94 -126.06 191.06 C-126.91 191.31 -127.75 191.56 -128.62 191.82 C-129.38 192.08 -130.15 192.35 -130.94 192.62 C-131.72 192.89 -132.5 193.16 -133.3 193.44 C-133.88 193.65 -134.46 193.85 -135.06 194.06 C-134.4 196.7 -133.74 199.34 -133.06 202.06 C-136.36 201.73 -139.66 201.4 -143.06 201.06 C-143.06 202.38 -143.06 203.7 -143.06 205.06 C-142.52 205.23 -141.98 205.4 -141.42 205.58 C-134.31 207.99 -134.31 207.99 -132.06 212.06 C-132.39 212.72 -132.72 213.38 -133.06 214.06 C-133.56 213.49 -134.05 212.91 -134.56 212.31 C-138.41 208.85 -142.8 206.06 -148.06 206.06 C-149.4 205.76 -150.74 205.43 -152.06 205.06 C-152.72 206.38 -153.38 207.7 -154.06 209.06 C-152.74 210.38 -151.42 211.7 -150.06 213.06 C-150.39 213.39 -150.72 213.72 -151.06 214.06 C-151.1 215.73 -151.11 217.4 -151.06 219.06 C-152.11 218.13 -152.11 218.13 -153.19 217.19 C-156.12 215.02 -158.57 214.04 -162.06 213.06 C-162.72 215.37 -163.38 217.68 -164.06 220.06 C-155.25 228.95 -155.25 228.95 -144.06 234.06 C-142.89 234.62 -141.71 235.18 -140.5 235.75 C-136.59 237.24 -134.21 237.66 -130.06 237.06 C-128.24 235.88 -128.24 235.88 -126.5 234.44 C-124.75 233.04 -124.75 233.04 -123.06 232.06 C-119.94 232.75 -119.94 232.75 -117.06 234.06 C-114.31 234.23 -114.31 234.23 -112.06 234.06 C-111.73 232.74 -111.4 231.42 -111.06 230.06 C-113.37 229.07 -115.68 228.08 -118.06 227.06 C-117.47 227.22 -116.88 227.37 -116.27 227.54 C-111.72 228.66 -108.67 229.09 -104.06 228.06 C-103.3 228.39 -102.54 228.72 -101.75 229.06 C-97.89 230.5 -95.1 229.75 -91.06 229.06 C-85.95 235.2 -85.95 235.2 -86.21 239.5 C-86.62 241.19 -87.04 242.88 -87.48 244.55 C-88.86 250.53 -87.77 255.42 -84.62 260.62 C-77.48 270.38 -64.26 280.24 -52.31 282.5 C-50.57 282.72 -48.82 282.91 -47.06 283.06 C-40.33 283.66 -33.99 284.94 -27.44 286.6 C-16.75 289.26 -6.01 289.33 4.96 289.58 C6.08 289.61 7.21 289.65 8.37 289.68 C9.39 289.71 10.41 289.73 11.47 289.76 C13.94 290.06 13.94 290.06 15.94 292.06 C14.94 293.06 14.94 293.06 11.5 293.44 C10.32 293.64 9.15 293.85 7.94 294.06 C7.28 295.05 6.62 296.04 5.94 297.06 C7.95 299.07 11.91 298.43 14.69 298.56 C19.19 298.78 23.52 299.14 27.94 300.06 C29.48 300.13 31.02 300.15 32.56 300.12 C33.32 300.12 34.07 300.11 34.85 300.1 C35.54 300.09 36.23 300.07 36.94 300.06 C39.94 300.06 39.94 300.06 43.88 300.62 C46.9 301.04 48.98 300.86 51.94 300.06 C52.6 300.72 53.26 301.38 53.94 302.06 C50.64 303.38 47.34 304.7 43.94 306.06 C43.28 305.4 42.62 304.74 41.94 304.06 C36.53 303.62 33.42 303.7 28.94 307.06 C29.27 308.05 29.6 309.04 29.94 310.06 C43.81 310.58 56.45 309.62 70 306.67 C74.42 305.76 78.87 305.01 83.32 304.25 C93.23 302.55 103.08 300.72 112.88 298.44 C113.73 298.24 114.58 298.05 115.46 297.85 C119.81 296.8 123.14 295.53 126.94 293.06 C128.86 292.61 130.78 292.15 132.71 291.71 C136.14 290.71 139.19 289.08 142.35 287.41 C144.08 286.51 145.82 285.65 147.59 284.84 C153.1 282.27 156.99 279.73 160.94 275.06 C160.94 274.4 160.94 273.74 160.94 273.06 C161.51 272.82 162.09 272.58 162.68 272.32 C169.17 268.69 173.59 261.96 175.94 255.06 C174.95 254.73 173.96 254.4 172.94 254.06 C172.98 253.49 173.03 252.93 173.08 252.34 C173.28 248.07 173.27 245.05 170.94 241.38 C168.8 237.83 168.28 236.12 168.94 232.06 C170.42 231.07 170.42 231.07 171.94 230.06 C173.12 226.77 173.12 226.77 172.94 223.06 C171.3 220.72 170.02 219.23 167.94 217.38 C167.43 216.9 166.93 216.42 166.41 215.93 C163.72 213.44 161.05 211.33 157.81 209.62 C154.94 208.06 154.94 208.06 154 205.81 C153.97 204.95 153.97 204.95 153.94 204.06 C157.05 203.1 158.42 202.81 161.39 204.28 C162.17 204.85 162.95 205.41 163.75 206 C164.54 206.57 165.33 207.13 166.14 207.71 C166.74 208.16 167.33 208.6 167.94 209.06 C168.6 208.07 169.26 207.08 169.94 206.06 C166.97 203.75 164 201.44 160.94 199.06 C161.96 195.05 163.17 191.43 164.94 187.69 C170.22 175.89 171.09 160.92 167.03 148.55 C162.81 138.95 156.13 132.14 146.46 128 C136.82 124.8 127.74 124.49 117.94 127.06 C117.81 125.87 117.69 124.67 117.56 123.44 C116.61 116.06 114.01 108.82 107.94 104.06 C106.95 104.06 105.96 104.06 104.94 104.06 C104.28 102.74 103.62 101.42 102.94 100.06 C100.96 100.56 100.96 100.56 98.94 101.06 C99.27 100.07 99.6 99.08 99.94 98.06 C98.22 97.02 96.49 96.01 94.75 95 C93.79 94.43 92.82 93.86 91.83 93.28 C88.61 91.92 87.21 92.01 83.94 93.06 C83.94 92.07 83.94 91.08 83.94 90.06 C82.3 89.88 82.3 89.88 80.62 89.69 C76.94 89.06 76.94 89.06 73.94 87.06 C73.61 87.39 73.28 87.72 72.94 88.06 C71.27 88.1 69.6 88.11 67.94 88.06 C67.94 87.07 67.94 86.08 67.94 85.06 C66.13 84.7 64.31 84.35 62.5 84 C60.99 83.7 60.99 83.7 59.44 83.4 C58.2 83.23 58.2 83.23 56.94 83.06 C56.61 83.39 56.28 83.72 55.94 84.06 C54.27 84.1 52.6 84.11 50.94 84.06 C50.94 83.07 50.94 82.08 50.94 81.06 C48.71 80.72 46.48 80.39 44.25 80.06 C43.01 79.88 41.77 79.69 40.49 79.5 C37.58 79.14 34.86 78.97 31.94 79.06 C31.61 79.72 31.28 80.38 30.94 81.06 C29.62 81.06 28.3 81.06 26.94 81.06 C26.61 80.07 26.28 79.08 25.94 78.06 C24.95 78.39 23.96 78.72 22.94 79.06 C15.94 79.06 15.94 79.06 13.22 78.07 C9.76 77.01 7.05 76.83 3.45 76.87 C1.65 76.88 1.65 76.88 -0.19 76.89 C-2.04 76.91 -2.04 76.91 -3.94 76.94 C-5.2 76.95 -6.46 76.96 -7.76 76.96 C-10.86 76.99 -13.96 77.02 -17.06 77.06 Z M-169.06 221.06 C-170.05 222.55 -170.05 222.55 -171.06 224.06 C-168.59 225.55 -168.59 225.55 -166.06 227.06 C-165.9 224.01 -165.9 224.01 -167.06 221.06 C-167.72 221.06 -168.38 221.06 -169.06 221.06 Z M-171.06 228.06 C-171.06 229.05 -171.06 230.04 -171.06 231.06 C-170.4 230.4 -169.74 229.74 -169.06 229.06 C-169.72 228.73 -170.38 228.4 -171.06 228.06 Z M-154.06 232.06 C-154.56 234.04 -154.56 234.04 -155.06 236.06 C-151.72 238.53 -151.72 238.53 -147.75 238.75 C-146.91 238.41 -146.91 238.41 -146.06 238.06 C-146.06 237.07 -146.06 236.08 -146.06 235.06 C-148.97 232.26 -149.85 232.06 -154.06 232.06 Z M-122.06 234.06 C-122.06 235.05 -122.06 236.04 -122.06 237.06 C-120.74 237.72 -119.42 238.38 -118.06 239.06 C-118.06 237.74 -118.06 236.42 -118.06 235.06 C-119.38 234.73 -120.7 234.4 -122.06 234.06 Z M-166.06 275.06 C-166.06 276.05 -166.06 277.04 -166.06 278.06 C-165.4 277.4 -164.74 276.74 -164.06 276.06 C-164.72 275.73 -165.38 275.4 -166.06 275.06 Z M-154.06 284.06 C-154.06 285.05 -154.06 286.04 -154.06 287.06 C-153.4 286.4 -152.74 285.74 -152.06 285.06 C-152.72 284.73 -153.38 284.4 -154.06 284.06 Z M156.15 285.14 C155.24 285.94 155.24 285.94 154.31 286.75 C149.84 290.33 145.3 292.16 139.94 294.06 C139.02 294.41 138.11 294.76 137.17 295.12 C132.8 296.79 128.6 298.2 124 299.06 C120.26 299.8 118.32 300.96 115.94 304.06 C119.23 306.51 119.23 306.51 123.16 306.84 C132.95 304.11 142.11 299.23 150.69 293.88 C151.35 293.46 152.02 293.04 152.71 292.62 C156.18 290.39 159.14 288.13 161.94 285.06 C158.97 283.94 158.97 283.94 156.15 285.14 Z M-86.06 292.06 C-86.39 293.38 -86.72 294.7 -87.06 296.06 C-88.38 296.39 -89.7 296.72 -91.06 297.06 C-90.73 297.72 -90.4 298.38 -90.06 299.06 C-87.82 299.67 -85.58 300.02 -83.29 300.4 C-81.06 301.06 -81.06 301.06 -79.63 302.62 C-77.31 304.76 -75.46 304.36 -72.38 304.25 C-70.88 304.21 -70.88 304.21 -69.36 304.17 C-68.6 304.13 -67.84 304.1 -67.06 304.06 C-66.73 305.05 -66.4 306.04 -66.06 307.06 C-62.9 308.33 -59.69 308.17 -56.31 308.12 C-55.33 308.12 -54.34 308.11 -53.33 308.1 C-52.58 308.09 -51.83 308.07 -51.06 308.06 C-51.06 307.07 -51.06 306.08 -51.06 305.06 C-54.32 303.13 -56.81 302.85 -60.56 302.75 C-65.74 302.36 -65.74 302.36 -68.5 299.81 C-69.55 297.97 -70.57 296.12 -71.56 294.25 C-75.29 290.99 -78.78 291.69 -83.58 291.89 C-84.81 291.97 -84.81 291.97 -86.06 292.06 Z M-118.06 303.06 C-119.05 304.55 -119.05 304.55 -120.06 306.06 C-113.9 309.44 -107.88 311.41 -101.06 313.06 C-100.73 311.74 -100.4 310.42 -100.06 309.06 C-100.65 308.88 -101.25 308.7 -101.86 308.51 C-106.33 307.09 -110.03 305.48 -114.06 303.06 C-115.38 303.06 -116.7 303.06 -118.06 303.06 Z M-28.06 305.06 C-28.06 306.05 -28.06 307.04 -28.06 308.06 C-27.07 307.73 -26.08 307.4 -25.06 307.06 C-25.39 306.4 -25.72 305.74 -26.06 305.06 C-26.72 305.06 -27.38 305.06 -28.06 305.06 Z M93.94 309.06 C94.93 310.55 94.93 310.55 95.94 312.06 C94.95 313.05 93.96 314.04 92.94 315.06 C97.56 316.52 100.98 315.4 105.38 313.81 C106.34 313.49 106.34 313.49 107.32 313.15 C111.37 311.75 115.15 310.05 118.94 308.06 C118.61 307.4 118.28 306.74 117.94 306.06 C109.32 305.76 102 305.67 93.94 309.06 Z M-18.06 307.06 C-18.06 308.05 -18.06 309.04 -18.06 310.06 C-16.74 309.73 -15.42 309.4 -14.06 309.06 C-14.39 308.4 -14.72 307.74 -15.06 307.06 C-16.05 307.06 -17.04 307.06 -18.06 307.06 Z M-98.06 308.06 C-98.72 309.71 -99.38 311.36 -100.06 313.06 C-94.88 315.47 -89.9 316.96 -84.31 318.12 C-83.52 318.29 -82.73 318.46 -81.92 318.64 C-79.64 319.12 -77.35 319.6 -75.06 320.06 C-73.94 320.29 -72.81 320.52 -71.66 320.76 C-67.06 321.65 -62.76 322.32 -58.06 322.06 C-58.06 321.07 -58.06 320.08 -58.06 319.06 C-59.21 317.72 -59.21 317.72 -62.25 317.62 C-66.06 317.06 -66.06 317.06 -68.81 316.06 C-73.49 314.62 -78.2 314.39 -83.06 314.06 C-83.39 313.07 -83.72 312.08 -84.06 311.06 C-88.4 308.89 -93.21 307.59 -98.06 308.06 Z M-5.06 309.06 C-5.06 310.05 -5.06 311.04 -5.06 312.06 C-3.41 311.73 -1.76 311.4 -0.06 311.06 C-0.39 310.4 -0.72 309.74 -1.06 309.06 C-2.38 309.06 -3.7 309.06 -5.06 309.06 Z M69.94 312.06 C69.61 313.38 69.28 314.7 68.94 316.06 C67.89 315.84 66.83 315.61 65.75 315.38 C62.02 314.69 62.02 314.69 59.56 316.5 C56.73 318.18 56.03 318.19 52.89 318.04 C48.64 317.96 44.88 318.58 40.74 319.49 C29.19 321.97 17.95 322.43 6.19 322.38 C5.4 322.37 4.62 322.37 3.81 322.37 C-9.37 322.29 -9.37 322.29 -13.06 321.06 C-16.81 322.16 -17.84 322.72 -20.06 326.06 C-16.15 329.97 -3.4 328.21 2 328.25 C31.16 329.05 31.16 329.05 58.94 322.06 C60.09 322.08 61.25 322.1 62.44 322.12 C67.4 322.2 72.15 321.34 76.94 320.06 C78.23 319 78.23 319 78 316.5 C77.98 315.7 77.96 314.89 77.94 314.06 C75.03 312.81 73.14 312.06 69.94 312.06 Z M79.94 316.06 C79.94 317.05 79.94 318.04 79.94 319.06 C81.36 318.95 82.77 318.82 84.19 318.69 C84.98 318.62 85.77 318.55 86.58 318.48 C89.02 318.05 90.79 317.28 92.94 316.06 C92.61 315.4 92.28 314.74 91.94 314.06 C87.61 313.8 84.06 314.77 79.94 316.06 Z M-50.06 321.06 C-50.06 322.05 -50.06 323.04 -50.06 324.06 C-48.41 323.73 -46.76 323.4 -45.06 323.06 C-45.39 322.4 -45.72 321.74 -46.06 321.06 C-47.38 321.06 -48.7 321.06 -50.06 321.06 Z M-30.88 323.06 C-31.27 323.72 -31.66 324.38 -32.06 325.06 C-30.96 326.38 -30.96 326.38 -28.19 326.31 C-25.07 326.36 -25.07 326.36 -23.19 324.56 C-22.82 324.07 -22.44 323.57 -22.06 323.06 C-23.89 320.84 -23.89 320.84 -26.5 320.69 C-29.22 320.81 -29.22 320.81 -30.88 323.06 Z " fill="#637344" transform="translate(255.0625,59.9375)"/>
<path d="M0 0 C4.08 4.76 5.91 8.35 6.44 14.56 C6.72 18.05 6.72 18.05 8.5 21 C10.21 23.29 10.23 24.21 10.44 27 C10.92 32.89 12.48 38.65 15 44 C15.99 44.33 16.98 44.66 18 45 C18.29 44.2 18.58 43.39 18.88 42.56 C20 40 20 40 22 39 C22 38.01 22 37.02 22 36 C23.98 36.33 25.96 36.66 28 37 C28.05 35.13 28.09 33.25 28.12 31.38 C28.15 30.33 28.17 29.29 28.2 28.21 C27.98 24.69 27.51 22.2 26 19 C23.46 16.87 23.46 16.87 20.44 15.25 C15.08 12.16 15.08 12.16 14 10 C15.32 9.67 16.64 9.34 18 9 C17.34 8.01 16.68 7.02 16 6 C16.54 6.29 17.08 6.57 17.64 6.87 C20.29 8.14 22.98 9.14 25.75 10.12 C27.23 10.65 27.23 10.65 28.73 11.2 C29.48 11.46 30.23 11.73 31 12 C31 12.66 31 13.32 31 14 C31.86 14.12 32.72 14.24 33.61 14.36 C37.05 15.01 40.03 16.03 43.31 17.25 C50.17 19.65 57.13 21.25 64.25 22.69 C65.71 22.99 65.71 22.99 67.2 23.3 C83.42 26.47 99.69 27.41 116.19 27.38 C117.52 27.37 117.52 27.37 118.89 27.37 C137.82 27.33 155.52 25.07 173.65 19.49 C178.81 17.9 178.81 17.9 181 19 C184.45 20.23 186.5 19.78 189.94 18.62 C193.28 17.52 196.53 16.63 200 16 C198.9 18.99 198.32 19.85 195.38 21.25 C194.59 21.5 193.81 21.75 193 22 C192.85 23.52 192.85 23.52 192.69 25.06 C191.96 29.21 190.78 32.21 189 36 C187.5 35 187.5 35 186 33 C185.73 30.28 185.87 27.74 186 25 C181.92 26.3 181.92 26.3 178 28 C177.71 28.72 177.42 29.44 177.12 30.19 C176 33 176 33 174 35.81 C172.08 38.88 171.44 41.31 170.62 44.78 C169.54 48.65 167.8 52.2 166.06 55.81 C165.72 56.56 165.37 57.31 165.01 58.08 C163.25 61.79 161.98 64.02 159 67 C159.33 61.72 159.66 56.44 160 51 C158.31 53.53 157.34 55.48 156.3 58.28 C147.79 80.66 137.02 93.73 115 104 C105.39 107.39 96.27 108.54 86.83 104.18 C84 102.79 81.23 101.32 78.47 99.81 C75.77 98.4 73.89 97.63 71 97 C71.5 98.14 71.5 98.14 72 99.31 C73 102 73 102 73 105 C57.86 95.6 43.37 84.85 32 71 C30.08 68.82 28.18 66.94 26 65 C24.68 65 23.36 65 22 65 C26.49 81.11 39.2 97.31 52 108 C53.97 109.06 55.96 110.08 58 111 C58 111.99 58 112.98 58 114 C38.61 107.15 27.34 84.5 18.85 67.16 C9.37 47.19 -0.98 22.51 0 0 Z " fill="#385D38" transform="translate(145,199)"/>
<path d="M0 0 C0.68 0.1 1.36 0.2 2.06 0.31 C7.41 2.22 11.4 9.37 14.25 14.05 C17.13 20.53 17.22 29.35 15 36 C14.01 36.66 13.02 37.32 12 38 C10.68 40.51 9.59 43.08 8.48 45.69 C6.62 48.59 5.17 48.8 2 50 C1.23 50.79 0.45 51.58 -0.35 52.39 C-3.47 55.47 -6.47 56.95 -10.44 58.69 C-11.4 59.13 -11.4 59.13 -12.38 59.58 C-17.55 61.92 -22.73 63.83 -28.31 64.94 C-31.56 65.62 -34.57 66.53 -37.69 67.69 C-41.46 68.98 -44.13 69.42 -48 68 C-49.44 66.19 -49.44 66.19 -50 64 C-49.62 61.75 -49.62 61.75 -49 60 C-53.03 59.65 -53.03 59.65 -57 60 C-59.08 62.35 -59.08 62.35 -60 65 C-58.35 65 -56.7 65 -55 65 C-54.67 65.99 -54.34 66.98 -54 68 C-56 70 -56 70 -57.92 70.16 C-58.67 70.13 -59.42 70.1 -60.19 70.06 C-63.22 69.98 -65.54 70.1 -68.56 70.69 C-72.51 71.05 -74.49 70.22 -78.04 68.68 C-80.19 67.8 -80.19 67.8 -83.38 68.19 C-88.77 67.91 -92.83 65.36 -97 62 C-98.69 59.46 -98.69 59.46 -100 57 C-100.84 55.64 -100.84 55.64 -101.69 54.25 C-103.89 48.8 -103.72 44.1 -101.81 38.56 C-101.21 37.39 -100.62 36.21 -100 35 C-99.67 34.24 -99.34 33.48 -99 32.7 C-92.15 17.46 -79.04 7.79 -63.78 1.97 C-42.54 -5.46 -21.37 -7.81 0 0 Z M-28 13 C-28.66 14.32 -29.32 15.64 -30 17 C-29.01 17 -28.02 17 -27 17 C-27 15.68 -27 14.36 -27 13 C-27.33 13 -27.66 13 -28 13 Z M-20 40 C-17.95 42.42 -16.7 43.84 -13.56 44.56 C-9.94 43.77 -8.39 41.73 -6 39 C-6.33 38.01 -6.66 37.02 -7 36 C-11.55 36 -16.07 37.8 -20 40 Z " fill="#C87C27" transform="translate(403,284)"/>
<path d="M0 0 C1.45 0.03 1.45 0.03 2.94 0.06 C4.32 2.83 5.71 5.6 7.09 8.37 C8.37 10.93 9.65 13.48 10.94 16.04 C25.35 44.64 25.35 44.64 22.32 57.71 C20.05 63.59 16.37 66.99 10.94 70.06 C7.44 71.44 7.44 71.44 4.94 72.06 C4.94 72.39 4.94 72.72 4.94 73.06 C6.35 73.17 6.35 73.17 7.79 73.27 C89.92 79.47 89.92 79.47 114.47 105.18 C118.32 110.13 120.01 116.18 121.94 122.06 C122.76 122.04 123.58 122.02 124.43 121.99 C138.35 121.77 149.88 124.04 160.86 133.02 C169.44 141.48 172.79 153.5 173.12 165.25 C172.95 175.76 170.22 184.54 165.94 194.06 C165.61 195.05 165.28 196.04 164.94 197.06 C165.86 197.75 166.77 198.44 167.72 199.15 C181.3 209.48 193.97 222.14 196.76 239.87 C198.17 257.48 193.3 271.29 182.38 285.19 C146.48 326.26 78.54 341.05 26.48 344.9 C18.83 345.25 11.18 345.25 3.53 345.25 C0.54 345.25 -2.46 345.27 -5.45 345.29 C-23.02 345.34 -40.33 344.08 -57.62 340.94 C-59.37 340.62 -59.37 340.62 -61.15 340.3 C-87.57 335.27 -113.37 326.82 -137.06 314.06 C-138.07 313.53 -138.07 313.53 -139.1 312.98 C-160.38 301.67 -180.41 286.84 -190.06 264.06 C-190.57 262.92 -190.57 262.92 -191.09 261.75 C-195.15 250.93 -194.62 236.41 -190.39 225.77 C-177.72 199.94 -150.67 187.6 -124.7 178.66 C-123.92 178.4 -123.15 178.13 -122.35 177.87 C-119.89 177 -117.48 176.05 -115.06 175.06 C-116.06 168.54 -117.06 162.03 -118.13 155.52 C-123.96 119.35 -123.96 119.35 -117 107.67 C-101.59 86.95 -70.16 80.28 -46.08 76.58 C-32.17 74.68 -18.07 73.96 -4.06 73.06 C-6.41 71.5 -8.4 70.44 -10.94 69.31 C-16.32 66.63 -19.48 62.8 -21.88 57.31 C-24.84 48.32 -22.93 40.44 -19.06 32.06 C-17.27 28.53 -15.39 25.05 -13.5 21.57 C-10.34 15.72 -7.67 9.77 -5.16 3.62 C-3.64 0.07 -3.64 0.07 0 0 Z M-1.06 4.06 C-3.27 7.56 -4.96 11.03 -6.5 14.88 C-9.13 21.28 -11.86 27.29 -15.69 33.06 C-19.38 38.87 -20.89 45.18 -20.06 52.06 C-17.98 57.49 -15.99 61.79 -11.06 65.06 C-10.34 65.6 -9.62 66.13 -8.88 66.69 C-4.37 68.89 0.17 69.66 5.12 68.59 C11.29 66.46 16.08 63.16 19.21 57.25 C21.67 49.85 20.24 42.87 16.94 36.06 C16.62 35.41 16.31 34.75 15.99 34.07 C14.99 32 13.97 29.94 12.94 27.88 C12.59 27.18 12.25 26.48 11.9 25.76 C10.5 22.96 9.19 20.39 7.28 17.89 C5.16 15 4.69 11.75 3.88 8.3 C3.12 5.9 3.12 5.9 0.84 4.76 C0.21 4.53 -0.42 4.3 -1.06 4.06 Z M-17.06 77.06 C-17.39 78.05 -17.72 79.04 -18.06 80.06 C-21.94 79.19 -21.94 79.19 -23.06 78.06 C-27.38 77.92 -30.89 78.01 -35.06 79.06 C-36.56 79.19 -38.06 79.29 -39.56 79.38 C-45.27 79.85 -50.82 80.89 -56.44 82 C-57.31 82.17 -58.17 82.34 -59.07 82.51 C-63.25 83.37 -67.16 84.27 -71.06 86.06 C-70.57 87.55 -70.57 87.55 -70.06 89.06 C-71.38 89.39 -72.7 89.72 -74.06 90.06 C-74.56 88.58 -74.56 88.58 -75.06 87.06 C-84.64 90.2 -93.75 93.2 -102.06 99.06 C-102.85 99.6 -103.64 100.13 -104.45 100.68 C-110.74 105.19 -116.72 111.12 -118.06 119.06 C-119.2 135.55 -115.95 152.01 -112.33 168.02 C-111.55 171.49 -111.06 174.49 -111.06 178.06 C-111.96 178.3 -112.85 178.55 -113.77 178.8 C-120.23 180.59 -126.54 182.47 -132.73 185.08 C-134.25 185.72 -135.78 186.32 -137.34 186.89 C-148.85 191.11 -159.43 197.47 -169.06 205 C-169.67 205.47 -170.27 205.95 -170.9 206.43 C-172.33 207.59 -173.7 208.82 -175.06 210.06 C-175.06 210.72 -175.06 211.38 -175.06 212.06 C-175.66 212.27 -176.26 212.48 -176.88 212.69 C-179.89 214.58 -180.53 216.88 -182.06 220.06 C-182.91 221.01 -183.75 221.96 -184.62 222.94 C-187.61 226.77 -188.13 229.34 -189.06 234.06 C-189.39 235.05 -189.72 236.04 -190.06 237.06 C-190.75 247.98 -190.21 257.71 -184.06 267.06 C-183.39 268.73 -182.72 270.39 -182.06 272.06 C-181.4 273.05 -180.74 274.04 -180.06 275.06 C-179.4 275.06 -178.74 275.06 -178.06 275.06 C-177.73 276.38 -177.4 277.7 -177.06 279.06 C-176.4 279.06 -175.74 279.06 -175.06 279.06 C-174.81 279.64 -174.57 280.22 -174.31 280.81 C-172.25 284.52 -169.56 286.73 -166.06 289.06 C-164.3 290.75 -162.65 292.51 -161 294.31 C-157.15 298.16 -152.56 301.05 -148.06 304.06 C-146.93 304.85 -146.93 304.85 -145.78 305.66 C-145.09 306.12 -144.4 306.58 -143.69 307.06 C-143.08 307.48 -142.48 307.89 -141.85 308.31 C-139.56 309.27 -138.36 308.87 -136.06 308.06 C-135.88 308.66 -135.69 309.26 -135.5 309.88 C-133.77 312.51 -132.06 313.12 -129.17 314.22 C-126.8 315.17 -124.58 316.32 -122.31 317.5 C-116.57 320.41 -110.48 323.07 -104.18 324.48 C-101.71 325.16 -99.46 326.2 -97.11 327.23 C-93.15 328.84 -89.04 330.02 -84.94 331.25 C-84.06 331.52 -83.18 331.8 -82.27 332.08 C-81.41 332.33 -80.56 332.59 -79.68 332.86 C-78.91 333.09 -78.15 333.32 -77.35 333.56 C-75.04 334.16 -75.04 334.16 -72.51 334.05 C-70 334.06 -68.56 334.47 -66.28 335.46 C-62.1 337.13 -58.06 337.97 -53.62 338.62 C-52.81 338.75 -51.99 338.87 -51.15 339 C-18.41 343.65 17.35 344.79 49.98 338.62 C52.34 338.17 54.71 337.78 57.09 337.41 C75.26 334.96 75.26 334.96 91.94 328.06 C93.94 328.02 95.94 328.02 97.94 328.06 C99.92 327.2 99.92 327.2 101.94 326.06 C104.27 325.38 106.6 324.72 108.94 324.06 C122.43 320.42 122.43 320.42 133.94 313.06 C134.68 312.93 135.41 312.79 136.18 312.65 C139.63 311.91 142.1 310.43 145.12 308.62 C146.17 308.01 147.22 307.39 148.29 306.75 C150.96 305.18 150.96 305.18 152.94 303.06 C153.7 302.76 154.47 302.46 155.26 302.16 C158.17 300.97 160.28 299.5 162.75 297.56 C163.54 296.95 164.33 296.35 165.14 295.72 C166.03 294.9 166.03 294.9 166.94 294.06 C166.94 293.4 166.94 292.74 166.94 292.06 C167.52 291.96 168.11 291.87 168.71 291.77 C173.61 290.22 177.05 285.35 179.88 281.25 C181.08 279.17 181.08 279.17 180.94 277.06 C181.51 276.88 182.09 276.69 182.69 276.5 C187.53 273.41 189.39 267.36 190.94 262.06 C191.29 260.99 191.64 259.92 192 258.81 C194.12 250.34 194.45 242.53 191.94 234.06 C191.28 233.4 190.62 232.74 189.94 232.06 C189.52 230.87 189.11 229.67 188.69 228.44 C185.89 220.74 179.61 212.8 172.94 208.06 C170.73 208.25 170.73 208.25 168.94 209.06 C169.27 208.07 169.6 207.08 169.94 206.06 C166.97 203.75 164 201.44 160.94 199.06 C161.96 195.05 163.17 191.43 164.94 187.69 C170.22 175.89 171.09 160.92 167.03 148.55 C162.81 138.95 156.13 132.14 146.46 128 C136.82 124.8 127.74 124.49 117.94 127.06 C117.81 125.87 117.69 124.67 117.56 123.44 C116.61 116.06 114.01 108.82 107.94 104.06 C106.95 104.06 105.96 104.06 104.94 104.06 C104.28 102.74 103.62 101.42 102.94 100.06 C100.96 100.56 100.96 100.56 98.94 101.06 C99.27 100.07 99.6 99.08 99.94 98.06 C98.22 97.02 96.49 96.01 94.75 95 C93.79 94.43 92.82 93.86 91.83 93.28 C88.61 91.92 87.21 92.01 83.94 93.06 C83.94 92.07 83.94 91.08 83.94 90.06 C82.3 89.88 82.3 89.88 80.62 89.69 C76.94 89.06 76.94 89.06 73.94 87.06 C73.61 87.39 73.28 87.72 72.94 88.06 C71.27 88.1 69.6 88.11 67.94 88.06 C67.94 87.07 67.94 86.08 67.94 85.06 C66.13 84.7 64.31 84.35 62.5 84 C60.99 83.7 60.99 83.7 59.44 83.4 C58.2 83.23 58.2 83.23 56.94 83.06 C56.61 83.39 56.28 83.72 55.94 84.06 C54.27 84.1 52.6 84.11 50.94 84.06 C50.94 83.07 50.94 82.08 50.94 81.06 C48.71 80.72 46.48 80.39 44.25 80.06 C43.01 79.88 41.77 79.69 40.49 79.5 C37.58 79.14 34.86 78.97 31.94 79.06 C31.61 79.72 31.28 80.38 30.94 81.06 C29.62 81.06 28.3 81.06 26.94 81.06 C26.61 80.07 26.28 79.08 25.94 78.06 C24.95 78.39 23.96 78.72 22.94 79.06 C15.94 79.06 15.94 79.06 13.22 78.07 C9.76 77.01 7.05 76.83 3.45 76.87 C1.65 76.88 1.65 76.88 -0.19 76.89 C-2.04 76.91 -2.04 76.91 -3.94 76.94 C-5.2 76.95 -6.46 76.96 -7.76 76.96 C-10.86 76.99 -13.96 77.02 -17.06 77.06 Z " fill="#050604" transform="translate(255.0625,59.9375)"/>
<path d="M0 0 C7.17 3.93 11.34 9.78 15 17 C15.94 20.38 15.94 20.38 16 24 C16.06 24.94 16.12 25.89 16.18 26.86 C16.72 40.22 12.92 51.47 3.88 61.3 C-6.31 71.23 -20.29 78.12 -34.62 78.19 C-36.42 78.14 -38.21 78.08 -40 78 C-38.9 68.82 -38.9 68.82 -37 65 C-34.24 63.72 -31.89 62.86 -29 62.06 C-17.84 58.54 -10.26 53.26 -3 44 C-0.86 46.14 -0.57 47.13 0 50 C0.99 49.67 1.98 49.34 3 49 C5.91 41.99 6.93 34.38 5 27 C2.12 21.35 -2.05 17.37 -7.81 14.69 C-16.09 12.9 -23.02 14.49 -31 17 C-30.25 11.25 -30.25 11.25 -28 9 C-28 8.01 -28 7.02 -28 6 C-28.66 5.67 -29.32 5.34 -30 5 C-30 3.02 -30 1.04 -30 -1 C-21.05 -7.14 -9.12 -4.55 0 0 Z " fill="#40623D" transform="translate(404,194)"/>
<path d="M0 0 C0.66 0 1.32 0 2 0 C1.67 1.32 1.34 2.64 1 4 C1.66 4 2.32 4 3 4 C-7.02 25.55 -37.17 37.27 -57.85 44.87 C-85.18 54.64 -113.22 59.94 -142 63 C-142.94 63.11 -143.89 63.21 -144.86 63.32 C-205.96 69.36 -283.48 60.46 -333.57 22.02 C-338.93 17.58 -344.12 12.96 -349 8 C-348 6 -348 6 -345 5 C-342.29 6.32 -340.29 7.7 -338.19 9.88 C-335.58 12.41 -332.75 14.05 -329.61 15.85 C-329.08 16.23 -328.55 16.61 -328 17 C-328 17.66 -328 18.32 -328 19 C-326.68 18.67 -325.36 18.34 -324 18 C-323.67 18.99 -323.34 19.98 -323 21 C-321.01 21.71 -319.01 22.37 -317 23 C-316.44 23.43 -315.88 23.86 -315.3 24.31 C-312.07 26.68 -308.54 28.31 -304.94 30.06 C-303.51 30.76 -302.08 31.46 -300.65 32.16 C-299.71 32.62 -299.71 32.62 -298.75 33.09 C-297 34 -297 34 -294 36 C-294.33 37.32 -294.66 38.64 -295 40 C-292.42 40.98 -289.83 41.96 -287.25 42.94 C-286.52 43.22 -285.79 43.49 -285.04 43.78 C-283.98 44.18 -283.98 44.18 -282.89 44.59 C-282.24 44.84 -281.59 45.08 -280.92 45.34 C-278.96 46.01 -277.01 46.51 -275 47 C-273.77 47.36 -272.54 47.72 -271.27 48.09 C-263.49 50.35 -255.74 52.4 -247.75 53.81 C-247.06 53.94 -246.37 54.06 -245.66 54.19 C-241.73 54.84 -237.98 55.12 -234 55 C-234.33 54.34 -234.66 53.68 -235 53 C-236.16 52.83 -237.31 52.67 -238.5 52.5 C-239.66 52.33 -240.81 52.17 -242 52 C-242.33 51.34 -242.66 50.68 -243 50 C-240.92 49.95 -238.83 49.91 -236.75 49.88 C-235.59 49.85 -234.43 49.83 -233.23 49.8 C-230 50 -230 50 -228.1 50.97 C-225.72 52.14 -223.86 52.4 -221.23 52.63 C-220.34 52.72 -219.46 52.8 -218.54 52.89 C-217.62 52.97 -216.7 53.04 -215.75 53.12 C-214.81 53.21 -213.88 53.3 -212.91 53.39 C-210.61 53.6 -208.31 53.8 -206 54 C-206 57 -206 57 -207 59 C-204.08 59.17 -204.08 59.17 -201 59 C-200.01 58.01 -200.01 58.01 -199 57 C-199.33 56.34 -199.66 55.68 -200 55 C-196.37 55 -192.74 55 -189 55 C-190.32 55.66 -191.64 56.32 -193 57 C-193.66 57.99 -194.32 58.98 -195 60 C-172.48 62.23 -137.74 65.37 -117 55 C-115.85 55.02 -114.69 55.04 -113.5 55.06 C-108.51 55.15 -103.84 54.11 -99 53 C-99 51.02 -99 49.04 -99 47 C-96.63 46.47 -94.25 45.95 -91.88 45.44 C-90.88 45.21 -90.88 45.21 -89.86 44.98 C-85.6 44.08 -82.24 44 -78 45 C-79.32 46.32 -80.64 47.64 -82 49 C-73.6 48.24 -65.76 45.17 -58 42 C-58 41.67 -58 41.34 -58 41 C-59.98 40.67 -61.96 40.34 -64 40 C-62.68 38.35 -61.36 36.7 -60 35 C-59.34 35.33 -58.68 35.66 -58 36 C-58.33 36.66 -58.66 37.32 -59 38 C-56.75 39.42 -55.49 40.06 -52.81 39.74 C-39.9 36.33 -24.27 28.71 -15 19 C-17.93 19.63 -20.36 20.59 -23 22 C-21.73 18.18 -20.43 17.82 -17 15.81 C-6.79 9.54 -6.79 9.54 0 0 Z M-342 9 C-342 9.99 -342 10.98 -342 12 C-341.34 11.34 -340.68 10.68 -340 10 C-340.66 9.67 -341.32 9.34 -342 9 Z M-330 18 C-330 18.99 -330 19.98 -330 21 C-329.34 20.34 -328.68 19.68 -328 19 C-328.66 18.67 -329.32 18.34 -330 18 Z M-96 50 C-96 50.99 -96 51.98 -96 53 C-94.58 52.88 -93.17 52.76 -91.75 52.62 C-90.96 52.56 -90.17 52.49 -89.36 52.41 C-86.91 51.98 -85.15 51.21 -83 50 C-83.33 49.34 -83.66 48.68 -84 48 C-88.33 47.74 -91.88 48.71 -96 50 Z M-226 55 C-226 55.99 -226 56.98 -226 58 C-224.35 57.67 -222.7 57.34 -221 57 C-221.33 56.34 -221.66 55.68 -222 55 C-223.32 55 -224.64 55 -226 55 Z " fill="#2F4F2A" transform="translate(431,326)"/>
<path d="M0 0 C4.69 0.94 7.75 4.27 11.13 7.44 C13.02 9.21 13.02 9.21 16 10 C16.66 10.99 17.32 11.98 18 13 C18.66 13 19.32 13 20 13 C20.11 13.57 20.21 14.14 20.32 14.73 C21.11 17.35 22.29 19.09 23.88 21.31 C29.14 29.01 31.79 36.53 31 46 C29.13 52.2 26.36 59.11 22 64 C21.01 64 20.02 64 19 64 C18.8 64.71 18.6 65.42 18.39 66.15 C16.59 69.85 13.94 72.02 10.81 74.56 C10.26 75.03 9.71 75.5 9.14 75.98 C6.28 78.36 3.48 80.35 0.2 82.09 C-3.16 84.09 -3.42 84.72 -5 88 C-7.64 89.41 -7.64 89.41 -10.81 90.62 C-11.85 91.03 -12.89 91.43 -13.96 91.85 C-14.96 92.23 -15.97 92.61 -17 93 C-17.83 93.37 -18.67 93.73 -19.52 94.11 C-22.34 95.12 -24.84 95.41 -27.81 95.62 C-29.28 95.74 -29.28 95.74 -30.77 95.85 C-31.51 95.9 -32.24 95.95 -33 96 C-31.53 91.28 -31.53 91.28 -29.19 90.03 C-28.47 89.86 -27.74 89.68 -27 89.5 C-22.54 88.23 -18.66 86.46 -14.55 84.31 C-12.84 83.43 -11.11 82.6 -9.36 81.81 C-4.25 79.49 -0.92 77.31 2.48 72.84 C4.82 70.01 7.63 67.8 10.46 65.48 C11.22 64.75 11.22 64.75 12 64 C12 63.34 12 62.68 12 62 C12.62 61.4 13.24 60.8 13.88 60.19 C16.12 57.87 16.99 56.03 18 53 C17.01 52.5 17.01 52.5 16 52 C15.73 50.18 15.73 50.18 15.62 47.88 C15.34 44.45 14.79 42.21 12.94 39.31 C10.87 35.77 10.35 34.02 11 30 C11.99 29.34 12.98 28.68 14 28 C15.13 24.68 15.13 24.68 15 21 C13.26 18.18 13.26 18.18 10.56 15.88 C9.65 15.02 8.73 14.17 7.79 13.3 C5.39 11.32 3.06 9.69 0.38 8.12 C-0.74 7.42 -1.85 6.72 -3 6 C-3 4.68 -3 3.36 -3 2 C-2.01 1.34 -1.02 0.68 0 0 Z " fill="#C8A25C" transform="translate(412,262)"/>
<path d="M0 0 C0.33 0 0.66 0 1 0 C1.63 12.18 -1.44 23.22 -7 34 C-8.58 30.99 -9.44 28.36 -10 25 C-13.11 28.11 -13.82 32.36 -15.06 36.5 C-16.16 40.02 -17.01 42.71 -20 45 C-21.32 43.68 -22.64 42.36 -24 41 C-26.15 42.56 -26.15 42.56 -28 45 C-27.9 46.05 -27.79 47.1 -27.69 48.19 C-28.19 54.33 -32.48 57.15 -37 61 C-39.27 62.78 -41.56 64.52 -43.87 66.25 C-46.74 68.61 -49.01 71.33 -51.41 74.16 C-58.71 82.6 -69.88 88.17 -81 89 C-87.67 89.19 -94.33 89.13 -101 89 C-96.92 86.28 -92.62 85.34 -87.93 84 C-84.92 83.21 -84.92 83.21 -83 81 C-79.5 80.75 -79.5 80.75 -76 81 C-75.34 81.66 -74.68 82.32 -74 83 C-74.33 83.66 -74.66 84.32 -75 85 C-68.98 83.12 -63.09 78.8 -59 74 C-58.15 71.9 -58.15 71.9 -57.56 69.62 C-56.32 65.69 -55.11 62.85 -52 60 C-50 59.67 -48 59.33 -46 59 C-43.62 56.56 -43.62 56.56 -42 54 C-42.33 53.34 -42.66 52.68 -43 52 C-44.32 52.99 -45.64 53.98 -47 55 C-46.38 52.12 -46.38 52.12 -45 49 C-44.01 48.69 -43.02 48.38 -42 48.06 C-40.51 47.54 -40.51 47.54 -39 47 C-38.76 45.98 -38.51 44.96 -38.26 43.9 C-37 38.84 -33.57 35.98 -29.88 32.5 C-29.2 31.84 -28.52 31.19 -27.82 30.51 C-25.9 28.66 -23.95 26.82 -22 25 C-21.13 24.19 -20.26 23.38 -19.37 22.54 C-13.63 17.37 -13.63 17.37 -10 16 C-7.87 16.45 -7.87 16.45 -6 17 C-5.48 15.28 -5.48 15.28 -4.94 13.54 C-4.48 12.04 -4.02 10.55 -3.56 9.06 C-3.33 8.31 -3.1 7.55 -2.87 6.78 C-1.11 1.11 -1.11 1.11 0 0 Z M-21 30 C-23.33 32.78 -23.33 32.78 -22.62 35.69 C-22.42 36.45 -22.21 37.21 -22 38 C-20.68 37.01 -19.36 36.02 -18 35 C-18.5 32.52 -18.5 32.52 -19 30 C-19.66 30 -20.32 30 -21 30 Z M-34 49 C-34.5 50.98 -34.5 50.98 -35 53 C-34.01 53 -33.02 53 -32 53 C-32 51.68 -32 50.36 -32 49 C-32.66 49 -33.32 49 -34 49 Z " fill="#46401B" transform="translate(349,235)"/>
<path d="M0 0 C3.76 3.12 5.37 7.59 7.39 11.91 C8.95 15.13 10.41 17.55 13 20 C13.72 22.32 14.38 24.65 15 27 C15.36 27.6 15.72 28.2 16.1 28.82 C17.38 31.91 16.88 34.16 16.38 37.44 C16.14 39.11 16.14 39.11 15.9 40.81 C14.49 45.81 12.21 48.3 7.75 50.88 C2.37 52.49 -1.39 52.03 -6.69 49.94 C-10.57 46.69 -13.23 42.95 -14.52 38 C-15.42 26.67 -7.03 13.65 -2 4 C-1.33 2.67 -0.66 1.34 0 0 Z M6 29.75 C2.14 32.64 -3.02 36 -8 36 C-8.66 35.01 -9.32 34.02 -10 33 C-10.99 33.33 -11.98 33.66 -13 34 C-12.71 39.91 -10.2 43.12 -6 47 C-2.93 49 -1.17 50.06 2.5 49.88 C6.43 48.5 9.82 47.07 12.94 44.25 C14.56 40.81 13.93 38.64 13 35 C11.81 32.53 10.47 30.32 9 28 C7.68 27.89 7.68 27.89 6 29.75 Z " fill="#A34E1C" transform="translate(254,72)"/>
<path d="M0 0 C3.15 2.96 5.25 5.71 6.12 10 C4.76 17.77 -0.4 24.53 -5.88 30 C-11.63 30.89 -15.85 29.91 -20.88 27 C-21.95 26.73 -23.02 26.46 -24.12 26.19 C-26.88 25 -26.88 25 -28.44 22.44 C-29.17 16.7 -27.2 12.18 -24.25 7.31 C-16.96 0.21 -10.12 -3.52 0 0 Z M-19.75 8.12 C-23.35 11.96 -24.3 15.86 -24.88 21 C-21.9 22.39 -18.9 23.71 -15.88 25 C-15.23 25.29 -14.59 25.59 -13.93 25.89 C-11.98 26.72 -11.98 26.72 -8.88 27 C-4.14 24.12 -0.73 20.28 1.12 15 C1.58 11.93 1.78 9.04 1.12 6 C-0.71 3.68 -1.7 3.06 -4.56 2.12 C-10.72 1.89 -15.19 4.05 -19.75 8.12 Z " fill="#030503" transform="translate(393.875,214)"/>
<path d="M0 0 C4.23 0.5 6.27 2.87 9.19 5.81 C10.07 6.69 10.95 7.56 11.86 8.46 C13.93 10.92 14.33 12.01 15 15 C15.99 15.33 16.98 15.66 18 16 C18 17.32 18 18.64 18 20 C18.66 20 19.32 20 20 20 C20 22.97 20 25.94 20 29 C19.34 29 18.68 29 18 29 C18 29.99 18 30.98 18 32 C18.99 32 19.98 32 21 32 C20.52 37.77 18.82 41.96 16 47 C15.5 45.51 15.5 45.51 15 44 C14.34 43.67 13.68 43.34 13 43 C12.73 41.18 12.73 41.18 12.62 38.88 C12.34 35.45 11.79 33.21 9.94 30.31 C7.87 26.77 7.35 25.02 8 21 C8.99 20.34 9.98 19.68 11 19 C12.16 15.69 12.16 15.69 12 12 C10.04 9.08 10.04 9.08 7.19 6.69 C6.27 5.85 5.36 5 4.42 4.14 C3.62 3.43 2.82 2.73 2 2 C1.34 1.34 0.68 0.68 0 0 Z " fill="#294024" transform="translate(415,271)"/>
<path d="M0 0 C0.83 0.13 1.66 0.27 2.52 0.4 C13.2 1.93 23.8 2.37 34.59 2.57 C35.76 2.6 36.94 2.63 38.14 2.66 C39.2 2.67 40.26 2.69 41.34 2.71 C44 3 44 3 47 5 C47 5.66 47 6.32 47 7 C39.6 9.81 31.77 9.74 24 8.44 C21.11 7.82 21.11 7.82 18.79 8.55 C15.13 9.14 11.94 8.46 8.38 7.69 C7.71 7.56 7.04 7.43 6.35 7.29 C3.02 6.6 0.87 5.91 -2 4 C-1.34 2.68 -0.68 1.36 0 0 Z " fill="#315831" transform="translate(224,330)"/>
<path d="M0 0 C1.34 3.43 2.67 6.87 4 10.31 C4.38 11.29 4.76 12.27 5.16 13.27 C5.52 14.21 5.88 15.15 6.25 16.11 C6.59 16.98 6.92 17.84 7.27 18.73 C8 21 8 21 8 24 C0.14 20.53 -6.49 12.15 -11 5 C-11 4.01 -11 3.02 -11 2 C-7.14 0.56 -4.1 -0.11 0 0 Z " fill="#294827" transform="translate(146,246)"/>
<path d="M0 0 C1.98 3.96 0.12 9.14 -0.56 13.38 C-0.83 15.05 -0.83 15.05 -1.1 16.75 C-2.85 27.14 -5.66 37.03 -9 47 C-9.33 47 -9.66 47 -10 47 C-9.45 39.53 -8.43 32.28 -7 24.94 C-5.78 18.64 -4.76 12.47 -4.35 6.06 C-3.84 3.09 -2.41 1.71 0 0 Z " fill="#3F6839" transform="translate(365,199)"/>
<path d="M0 0 C1.01 0.12 2.01 0.24 3.05 0.37 C7.7 0.92 12.35 1.46 17 2 C17.77 2.09 18.55 2.18 19.35 2.27 C31.55 3.69 43.72 4.51 56 5 C52.04 8.96 45.88 8.14 40.56 8.23 C38 8 38 8 35.25 7.01 C31.09 5.72 27.27 5.71 22.94 5.62 C14.68 5.35 7.75 3.99 0 1 C0 0.67 0 0.34 0 0 Z " fill="#574944" transform="translate(219,206)"/>
<path d="M0 0 C2 0.3 2 0.3 4.44 0.88 C5.24 1.06 6.04 1.24 6.87 1.43 C9 2 9 2 11 3 C11 3.66 11 4.32 11 5 C7.04 5.66 3.08 6.32 -1 7 C-1 1 -1 1 0 0 Z " fill="#987F42" transform="translate(366,243)"/>
<path d="M0 0 C0.99 0.33 1.98 0.66 3 1 C3.95 3.5 3.95 3.5 4.69 6.56 C5.06 8.08 5.06 8.08 5.45 9.63 C5.63 10.41 5.81 11.19 6 12 C2.59 9.12 1.13 7.63 0.19 3.19 C0.13 2.14 0.06 1.08 0 0 Z " fill="#18371D" transform="translate(175,308)"/>
<path d="M0 0 C0.99 0.33 1.98 0.66 3 1 C2.91 2.44 2.8 3.88 2.69 5.31 C2.63 6.11 2.57 6.91 2.51 7.74 C2 10 2 10 -1 13 C-0.67 8.71 -0.34 4.42 0 0 Z " fill="#244527" transform="translate(348,216)"/>
<path d="M0 0 C0.33 0.99 0.66 1.98 1 3 C-0.43 5.04 -0.43 5.04 -2.44 7.19 C-3.1 7.9 -3.75 8.62 -4.43 9.36 C-4.95 9.9 -5.47 10.44 -6 11 C-6.66 10.67 -7.32 10.34 -8 10 C-6.86 8.52 -5.71 7.04 -4.56 5.56 C-3.61 4.33 -3.61 4.33 -2.63 3.07 C-1 1 -1 1 0 0 Z " fill="#214023" transform="translate(290,286)"/>
<path d="M0 0 C1.39 1.96 2.73 3.96 4 6 C0.28 5.49 -2.73 4.88 -6 3 C-4.61 0.21 -3.01 0 0 0 Z " fill="#53310C" transform="translate(195,201)"/>
<path d="M0 0 C1.32 0.66 2.64 1.32 4 2 C2.55 2.7 1.09 3.38 -0.38 4.06 C-1.19 4.45 -2 4.83 -2.84 5.22 C-3.55 5.48 -4.26 5.74 -5 6 C-5.66 5.67 -6.32 5.34 -7 5 C-4.69 3.35 -2.38 1.7 0 0 Z " fill="#4C403E" transform="translate(302,201)"/>
<path d="M0 0 C0 0.66 0 1.32 0 2 C-1.65 2.33 -3.3 2.66 -5 3 C-2.25 0 -2.25 0 0 0 Z " fill="#56392C" transform="translate(262,114)"/>
<path d="M0 0 C0.99 0.5 0.99 0.5 2 1 C1.67 2.32 1.34 3.64 1 5 C0.67 5 0.34 5 0 5 C0 3.35 0 1.7 0 0 Z " fill="#1C391E" transform="translate(333,242)"/>
<path d="M0 0 C0.99 0.33 1.98 0.66 3 1 C1.02 1.99 1.02 1.99 -1 3 C-0.67 2.01 -0.34 1.02 0 0 Z " fill="#1E3D20" transform="translate(295,355)"/>
<path d="M0 0 C3 1 3 1 3 1 Z " fill="#224323" transform="translate(277,351)"/>
<path d="M0 0 C3 1 3 1 3 1 Z " fill="#633B0E" transform="translate(199,207)"/>
<path d="M0 0 C3 1 3 1 3 1 Z " fill="#3F332F" transform="translate(216,205)"/>
<path d="M0 0 C2 1 2 1 2 1 Z " fill="#214123" transform="translate(280,350)"/>
<path d="M0 0 C2 1 2 1 2 1 Z " fill="#1A381D" transform="translate(281,333)"/>
<path d="M0 0 C2 1 2 1 2 1 Z " fill="#224023" transform="translate(275,304)"/>
<path d="M0 0 C2 1 2 1 2 1 Z " fill="#203E22" transform="translate(277,303)"/>
<path d="" fill="#18351D" transform="translate(0,0)"/>
<path d="" fill="#224123" transform="translate(0,0)"/>
<path d="" fill="#000000" transform="translate(0,0)"/>
<path d="" fill="#274926" transform="translate(0,0)"/>
<path d="" fill="#254524" transform="translate(0,0)"/>
<path d="" fill="#274A27" transform="translate(0,0)"/>
<path d="" fill="#13120A" transform="translate(0,0)"/>
<path d="" fill="#264727" transform="translate(0,0)"/>
<path d="" fill="#1B3B1F" transform="translate(0,0)"/>
<path d="" fill="#224123" transform="translate(0,0)"/>
<path d="" fill="#284C2A" transform="translate(0,0)"/>
<path d="" fill="#203E22" transform="translate(0,0)"/>
<path d="" fill="#224022" transform="translate(0,0)"/>
<path d="" fill="#234123" transform="translate(0,0)"/>
<path d="" fill="#403212" transform="translate(0,0)"/>
<path d="" fill="#453312" transform="translate(0,0)"/>
<path d="" fill="#1E3C21" transform="translate(0,0)"/>
<path d="" fill="#18341D" transform="translate(0,0)"/>
<path d="" fill="#1F3E22" transform="translate(0,0)"/>
<path d="" fill="#18341C" transform="translate(0,0)"/>
<path d="" fill="#1E3C21" transform="translate(0,0)"/>
<path d="" fill="#1E3D21" transform="translate(0,0)"/>
<path d="" fill="#284927" transform="translate(0,0)"/>
<path d="" fill="#000000" transform="translate(0,0)"/>
<path d="" fill="#010101" transform="translate(0,0)"/>
</svg>
